<?xml version="1.0" encoding="UTF-8" standalone="no"?>
<svg
   xmlns:dc="http://purl.org/dc/elements/1.1/"
   xmlns:cc="http://creativecommons.org/ns#"
   xmlns:rdf="http://www.w3.org/1999/02/22-rdf-syntax-ns#"
   xmlns:svg="http://www.w3.org/2000/svg"
   xmlns="http://www.w3.org/2000/svg"
   viewBox="0 0 666.66669 666.66669"
   height="666.66669"
   width="666.66669"
   xml:space="preserve"
   id="svg2"
   version="1.1"><metadata
     id="metadata8"><rdf:RDF><cc:Work
         rdf:about=""><dc:format>image/svg+xml</dc:format><dc:type
           rdf:resource="http://purl.org/dc/dcmitype/StillImage" /></cc:Work></rdf:RDF></metadata><defs
     id="defs6" /><g
     transform="matrix(1.3333333,0,0,-1.3333333,0,666.66667)"
     id="g10"><g
       transform="scale(0.1)"
       id="g12"><path
         id="path14"
         style="fill:#ffffff;fill-opacity:1;fill-rule:nonzero;stroke:none"
         d="M 0,0 H 5000 V 5000 H 0 Z" /><path
         id="path16"
         style="fill:#c5e0e3;fill-opacity:1;fill-rule:nonzero;stroke:none"
         d="m 4706.88,699.262 c 0,-58.852 -909.18,-106.551 -2030.73,-106.551 -1121.55,0 -2030.736,47.699 -2030.736,106.551 0,58.847 909.186,106.547 2030.736,106.547 1121.55,0 2030.73,-47.7 2030.73,-106.547" /><path
         id="path18"
         style="fill:#c5e0e3;fill-opacity:1;fill-rule:nonzero;stroke:none"
         d="m 2285.18,3511.13 c -152.08,551.69 -837.41,729.42 -1230.17,317.11 -5.64,-5.93 -11.27,-11.95 -16.9,-18.06 -563.075,-612.09 -297.075,-2120.44 878.04,-2502.75 1175.12,-382.301 2397.4,315.82 2466.08,939.89 68.66,624.08 -473.48,820.17 -1314.83,645.66 -475.34,-98.59 -687.55,274.71 -782.22,618.15" /><path
         id="path20"
         style="fill:#c5e0e3;fill-opacity:1;fill-rule:nonzero;stroke:none"
         d="m 3631.17,1368.57 c -138.54,-78.61 -131.01,-224.37 17.15,-274.87 48.97,-16.69 112.13,-22.23 193.39,-6.57 309.53,59.65 416.47,245.99 237.62,369.97 -110.38,76.51 -310.86,-10.61 -448.16,-88.53" /><path
         id="path22"
         style="fill:#c5e0e3;fill-opacity:1;fill-rule:nonzero;stroke:none"
         d="m 4102.25,1633.16 c -44.63,-62.97 -9.94,-137.82 66.73,-140.65 25.35,-0.94 54.58,6.19 87.31,27.25 124.65,80.21 132.08,194.37 25.98,230.67 -65.5,22.41 -135.81,-54.84 -180.02,-117.27" /><path
         id="path24"
         style="fill:#c5e0e3;fill-opacity:1;fill-rule:nonzero;stroke:none"
         d="m 2958.65,4056.82 c -26.92,-18.09 -63.53,-10.9 -81.62,16.02 -18.08,26.93 -10.91,63.54 16.03,81.63 26.92,18.08 63.53,10.9 81.62,-16.02 18.08,-26.93 10.9,-63.54 -16.03,-81.63 z m 158.16,-25.22 12.35,62.97 -59,11.58 c -0.03,15.51 -2.68,31.05 -7.81,46.09 l 48.62,32.66 -35.79,53.28 -46.53,-31.27 c -13.86,14.07 -30.13,24.89 -47.76,32.14 l 11.58,59.01 -62.97,12.35 -11.93,-60.82 c -12.92,-0.72 -25.78,-3.18 -38.32,-7.46 l -32.66,48.63 -53.27,-35.79 31.26,-46.53 c -14.06,-13.85 -24.88,-30.14 -32.13,-47.76 l -51.58,10.12 -12.36,-62.96 53.39,-10.48 c 0.92,-16.48 4.61,-32.91 11.34,-48.59 l -46.54,-31.26 35.79,-53.27 48.62,32.66 c 13.95,-12.16 29.89,-21.28 46.91,-27.26 l -11.66,-59.36 62.98,-12.35 12.63,64.35 c 13.84,1.53 27.56,5.08 40.76,10.76 l 31.25,-46.55 53.28,35.79 -32.66,48.61 c 8.69,9.99 15.83,20.97 21.39,32.66 l 60.82,-11.95" /><path
         id="path26"
         style="fill:#c5e0e3;fill-opacity:1;fill-rule:nonzero;stroke:none"
         d="m 2583.77,4341.3 c -14.72,-9.88 -34.73,-5.96 -44.61,8.75 -9.88,14.72 -5.96,34.72 8.75,44.61 14.72,9.89 34.73,5.96 44.61,-8.76 9.88,-14.71 5.96,-34.72 -8.75,-44.6 z m 86.43,-13.78 6.74,34.41 -32.23,6.33 c -0.02,8.47 -1.48,16.97 -4.27,25.19 l 26.56,17.84 -19.56,29.12 -25.42,-17.09 c -7.57,7.69 -16.47,13.6 -26.1,17.56 l 6.33,32.25 -34.42,6.75 -6.52,-33.23 c -7.06,-0.4 -14.08,-1.74 -20.94,-4.08 l -17.84,26.57 -29.12,-19.55 17.09,-25.43 c -7.69,-7.57 -13.61,-16.47 -17.57,-26.11 l -28.18,5.54 -6.76,-34.41 29.18,-5.73 c 0.51,-9.01 2.52,-17.99 6.2,-26.56 l -25.44,-17.08 19.56,-29.11 26.57,17.85 c 7.63,-6.65 16.34,-11.63 25.64,-14.89 l -6.37,-32.45 34.41,-6.75 6.91,35.17 c 7.57,0.83 15.06,2.78 22.27,5.88 l 17.08,-25.44 29.12,19.56 -17.86,26.57 c 4.76,5.45 8.66,11.45 11.7,17.84 l 33.24,-6.52" /><path
         id="path28"
         style="fill:#c5e0e3;fill-opacity:1;fill-rule:nonzero;stroke:none"
         d="m 942.07,1226.52 c -22.168,-23.68 -59.457,-24.92 -83.14,-2.75 -23.676,22.17 -24.914,59.45 -2.746,83.13 22.168,23.69 59.457,24.93 83.132,2.76 23.68,-22.17 24.918,-59.46 2.754,-83.14 z m 159.77,11.01 -2.13,64.13 -60.09,-1.99 c -3.53,15.11 -9.6,29.66 -17.97,43.15 l 40.01,42.77 -46.85,43.84 -38.306,-40.92 c -16.656,10.59 -34.957,17.47 -53.77,20.56 l -1.98,60.11 -64.137,-2.13 2.051,-61.94 c -12.43,-3.62 -24.406,-8.9 -35.656,-15.89 l -42.758,40.03 -43.852,-46.86 40.926,-38.3 c -10.59,-16.66 -17.469,-34.96 -20.566,-53.77 l -52.532,-1.73 2.114,-64.14 54.383,1.81 c 4.605,-15.86 11.894,-31.04 21.984,-44.8 l -38.316,-40.92 46.855,-43.86 40.027,42.76 c 16.325,-8.71 33.911,-14.01 51.836,-16 l 1.992,-60.46 64.137,2.13 -2.164,65.53 c 13.149,4.61 25.715,11.16 37.297,19.66 l 40.925,-38.32 43.86,46.86 -42.76,40.02 c 6.22,11.68 10.71,23.98 13.5,36.63 l 61.94,2.04" /><path
         id="path30"
         style="fill:#c5e0e3;fill-opacity:1;fill-rule:nonzero;stroke:none"
         d="m 1789.67,1088.72 c -12.11,-12.94 -32.49,-13.61 -45.43,-1.5 -12.94,12.12 -13.61,32.5 -1.51,45.44 12.12,12.94 32.5,13.61 45.44,1.5 12.94,-12.12 13.62,-32.5 1.5,-45.44 z m 87.32,6.02 -1.16,35.05 -32.84,-1.09 c -1.93,8.25 -5.25,16.2 -9.83,23.59 l 21.87,23.36 -25.61,23.97 -20.92,-22.37 c -9.11,5.79 -19.11,9.55 -29.39,11.24 l -1.08,32.85 -35.06,-1.16 1.13,-33.86 c -6.8,-1.97 -13.34,-4.86 -19.49,-8.68 l -23.36,21.88 -23.97,-25.61 22.36,-20.93 c -5.78,-9.1 -9.54,-19.1 -11.24,-29.39 l -28.7,-0.94 1.15,-35.05 29.72,0.97 c 2.52,-8.66 6.5,-16.95 12.01,-24.47 l -20.93,-22.37 25.6,-23.97 21.88,23.37 c 8.92,-4.75 18.53,-7.65 28.33,-8.74 l 1.08,-33.038 35.06,1.158 -1.19,35.82 c 7.18,2.52 14.05,6.09 20.39,10.74 l 22.36,-20.94 23.97,25.61 -23.37,21.86 c 3.4,6.39 5.86,13.11 7.37,20.02 l 33.86,1.12" /><path
         id="path32"
         style="fill:#c5e0e3;fill-opacity:1;fill-rule:nonzero;stroke:none"
         d="m 2047.56,4256.99 c -1.19,-0.3 -2.48,-0.31 -3.75,0.02 -13.55,3.55 -21.39,4.99 -21.47,5 -4.1,0.74 -6.82,4.67 -6.08,8.77 0.75,4.1 4.67,6.82 8.77,6.08 0.34,-0.06 8.42,-1.54 22.6,-5.25 4.04,-1.06 6.45,-5.18 5.39,-9.21 -0.73,-2.76 -2.87,-4.76 -5.46,-5.41" /><path
         id="path34"
         style="fill:#c5e0e3;fill-opacity:1;fill-rule:nonzero;stroke:none"
         d="m 2485.86,3911.21 c 7.03,-12.81 13.8,-26.1 20.12,-39.5 1.57,-3.31 5.24,-4.96 8.68,-4.09 l 1.37,0.5 c 3.76,1.77 5.38,6.27 3.6,10.04 -6.45,13.67 -13.36,27.23 -20.54,40.31 -2,3.65 -6.57,4.99 -10.24,2.99 -3.65,-2.01 -4.99,-6.59 -2.99,-10.25" /><path
         id="path36"
         style="fill:#c5e0e3;fill-opacity:1;fill-rule:nonzero;stroke:none"
         d="m 2523.71,3831.07 c 5.44,-13.54 10.62,-27.53 15.38,-41.61 1.27,-3.75 5.21,-5.85 9,-4.89 l 0.56,0.16 c 3.95,1.34 6.07,5.62 4.74,9.57 -4.85,14.34 -10.13,28.61 -15.68,42.4 -1.55,3.87 -5.95,5.74 -9.81,4.19 -3.87,-1.55 -5.74,-5.95 -4.19,-9.82" /><path
         id="path38"
         style="fill:#c5e0e3;fill-opacity:1;fill-rule:nonzero;stroke:none"
         d="m 2587.69,3610.07 c 3.65,0.93 6.11,4.45 5.62,8.27 -1.93,15.02 -4.2,30.04 -6.76,44.65 -0.72,4.1 -4.63,6.85 -8.73,6.13 -4.16,-0.75 -6.85,-4.63 -6.13,-8.73 2.52,-14.38 4.76,-29.17 6.65,-43.96 0.53,-4.14 4.32,-7.06 8.45,-6.53 l 0.9,0.17" /><path
         id="path40"
         style="fill:#c5e0e3;fill-opacity:1;fill-rule:nonzero;stroke:none"
         d="m 2557.39,3756.36 c -4.01,-1.13 -6.36,-5.29 -5.23,-9.3 1.84,-6.63 3.63,-13.33 5.29,-19.94 1.93,-7.61 3.8,-15.4 5.54,-23.14 0.92,-4.07 4.95,-6.62 9.02,-5.71 l 0.2,0.05 c 3.95,1 6.4,4.97 5.5,8.97 -1.77,7.88 -3.66,15.8 -5.63,23.54 -1.69,6.72 -3.51,13.54 -5.39,20.29 -1.1,3.95 -5.17,6.29 -9.12,5.28 l -0.18,-0.04" /><path
         id="path42"
         style="fill:#c5e0e3;fill-opacity:1;fill-rule:nonzero;stroke:none"
         d="m 2463.35,3949.39 c 1.8,-2.83 5.16,-4.06 8.24,-3.28 l 2.17,0.94 c 3.53,2.22 4.58,6.89 2.35,10.41 -8.04,12.72 -16.58,25.33 -25.38,37.48 -2.45,3.37 -7.16,4.13 -10.54,1.68 -3.37,-2.45 -4.13,-7.17 -1.68,-10.54 8.61,-11.89 16.97,-24.23 24.84,-36.69" /><path
         id="path44"
         style="fill:#c5e0e3;fill-opacity:1;fill-rule:nonzero;stroke:none"
         d="m 2086.15,4244.16 c 13.77,-4.7 27.74,-9.98 41.52,-15.66 1.56,-0.65 3.21,-0.73 4.73,-0.35 2.23,0.57 4.18,2.14 5.12,4.44 1.6,3.85 -0.23,8.27 -4.09,9.85 -14.07,5.81 -28.34,11.2 -42.4,16 -3.94,1.35 -8.23,-0.76 -9.58,-4.69 -1.35,-3.95 0.75,-8.24 4.7,-9.59" /><path
         id="path46"
         style="fill:#c5e0e3;fill-opacity:1;fill-rule:nonzero;stroke:none"
         d="m 2207.57,4189.86 c 1.76,-0.97 3.73,-1.18 5.53,-0.72 1.94,0.49 3.69,1.75 4.74,3.64 2.03,3.64 0.73,8.23 -2.91,10.26 -13.13,7.33 -26.64,14.36 -40.16,20.9 -3.76,1.81 -8.27,0.24 -10.08,-3.51 -1.82,-3.75 -0.25,-8.26 3.51,-10.08 13.26,-6.41 26.5,-13.3 39.37,-20.49" /><path
         id="path48"
         style="fill:#c5e0e3;fill-opacity:1;fill-rule:nonzero;stroke:none"
         d="m 2350.67,4085.65 c 1.95,-1.82 4.61,-2.41 7.02,-1.8 1.35,0.34 2.62,1.06 3.64,2.16 2.85,3.04 2.7,7.81 -0.34,10.66 -10.96,10.26 -22.4,20.31 -34,29.9 -3.22,2.65 -7.97,2.2 -10.63,-1.01 -2.65,-3.22 -2.19,-7.97 1.01,-10.63 11.38,-9.38 22.58,-19.24 33.3,-29.28" /><path
         id="path50"
         style="fill:#c5e0e3;fill-opacity:1;fill-rule:nonzero;stroke:none"
         d="m 2282.32,4142.1 c 1.89,-1.37 4.2,-1.74 6.3,-1.21 1.65,0.42 3.16,1.39 4.25,2.88 2.44,3.36 1.7,8.08 -1.67,10.54 -12.11,8.8 -24.7,17.39 -37.41,25.5 -3.52,2.25 -8.18,1.21 -10.42,-2.29 -2.25,-3.52 -1.22,-8.18 2.3,-10.43 12.46,-7.95 24.79,-16.36 36.65,-24.99" /><path
         id="path52"
         style="fill:#c5e0e3;fill-opacity:1;fill-rule:nonzero;stroke:none"
         d="m 2411.38,4021.12 c 1.92,-2.33 4.93,-3.21 7.67,-2.51 1.05,0.27 2.06,0.77 2.95,1.5 3.21,2.66 3.66,7.41 1,10.62 -9.58,11.58 -19.66,23.01 -29.95,33.96 -2.85,3.04 -7.63,3.18 -10.67,0.33 -3.03,-2.86 -3.18,-7.64 -0.32,-10.67 10.07,-10.72 19.94,-21.9 29.32,-33.23" /><path
         id="path54"
         style="fill:#3566ba;fill-opacity:1;fill-rule:nonzero;stroke:none"
         d="m 2040.06,4308.07 15.26,125.76 -399.98,-61.11 384.72,-64.65" /><path
         id="path56"
         style="fill:#3550aa;fill-opacity:1;fill-rule:nonzero;stroke:none"
         d="m 1655.33,4372.73 369.5,-96.68 0.98,-0.27 18.56,-22.66 -4.31,54.95 -384.73,64.66" /><path
         id="path58"
         style="fill:#343e9d;fill-opacity:1;fill-rule:nonzero;stroke:none"
         d="m 2044.37,4253.12 -33.2,0.44 14.64,22.22 18.56,-22.66" /><path
         id="path60"
         style="fill:#3566ba;fill-opacity:1;fill-rule:nonzero;stroke:none"
         d="m 1979.32,4287.95 46.5,-12.16 -75.64,-114.72 -294.84,211.65 323.98,-84.77" /><path
         id="path62"
         style="fill:#f03f33;fill-opacity:1;fill-rule:nonzero;stroke:none"
         d="m 3507.96,3896.28 h 356.527 v 246.277 H 3507.96 Z" /><path
         id="path64"
         style="fill:#f46947;fill-opacity:1;fill-rule:nonzero;stroke:none"
         d="m 3507.95,4142.56 178.27,-123.15 178.26,123.15 h -356.53" /><path
         id="path66"
         style="fill:#c5e0e3;fill-opacity:1;fill-rule:nonzero;stroke:none"
         d="m 3450.25,4086.09 h -114.94 c -4.18,0 -7.57,3.38 -7.57,7.56 0,4.18 3.39,7.57 7.57,7.57 h 114.94 c 4.18,0 7.57,-3.39 7.57,-7.57 0,-4.18 -3.39,-7.56 -7.57,-7.56" /><path
         id="path68"
         style="fill:#c5e0e3;fill-opacity:1;fill-rule:nonzero;stroke:none"
         d="m 3450.25,4011.85 h -114.94 c -4.18,0 -7.57,3.39 -7.57,7.57 0,4.18 3.39,7.57 7.57,7.57 h 114.94 c 4.18,0 7.57,-3.39 7.57,-7.57 0,-4.18 -3.39,-7.57 -7.57,-7.57" /><path
         id="path70"
         style="fill:#c5e0e3;fill-opacity:1;fill-rule:nonzero;stroke:none"
         d="m 3450.25,3937.62 h -114.94 c -4.18,0 -7.57,3.39 -7.57,7.57 0,4.18 3.39,7.57 7.57,7.57 h 114.94 c 4.18,0 7.57,-3.39 7.57,-7.57 0,-4.18 -3.39,-7.57 -7.57,-7.57" /><path
         id="path72"
         style="fill:#3550aa;fill-opacity:1;fill-rule:nonzero;stroke:none"
         d="m 4663.17,2718.85 c -59.69,-38.03 -114.57,-35.16 -163.46,-32.28 -51.54,3.03 -96.43,6.07 -133.3,-38.78 -71.86,-87.38 -181.82,-105.69 -242.05,-26.03 -60.23,79.7 -100.09,141.7 -207.5,85.9 -107.38,-55.81 -251.6,-5.19 -235.88,98.78 3.88,25.88 8.15,53.89 12.37,81.35 1.15,7.5 2.29,14.98 3.42,22.33 0.25,1.71 0.51,3.42 0.78,5.11 16.95,110.45 113.91,192.24 225.54,186.93 45.18,-2.16 87.61,-18.14 114.73,-60.46 54.19,-84.46 97.57,-53.94 150.42,-23.42 30.04,17.36 63.14,34.71 103.03,30.93 126.79,-11.95 139.03,-133.49 233.99,-132.36 132.08,1.55 260.52,-119.89 137.91,-198" /><path
         id="path74"
         style="fill:#343e9d;fill-opacity:1;fill-rule:nonzero;stroke:none"
         d="m 4487.61,2791.38 -794.26,96.41 c 1.15,7.5 2.29,14.98 3.42,22.33 l 793.55,-96.32 c 6.18,-0.75 10.61,-6.38 9.86,-12.57 -0.76,-6.19 -6.38,-10.61 -12.57,-9.85" /><path
         id="path76"
         style="fill:#3550aa;fill-opacity:1;fill-rule:nonzero;stroke:none"
         d="m 311.059,1640.15 c 51.984,-35.08 100.64,-33.67 143.972,-32.26 45.324,1.47 84.821,2.94 116.203,-37.33 61.368,-78.76 157.954,-97.47 212.946,-28.6 54.988,68.92 91.605,122.7 185.062,70.97 93.448,-51.74 221.858,-10.42 210.418,81.67 -2.83,22.92 -5.94,47.73 -9.02,72.06 -0.85,6.64 -1.68,13.27 -2.51,19.79 -0.19,1.5 -0.37,3.01 -0.57,4.52 -12.39,97.84 -96.03,172.25 -194.634,170.15 -39.914,-0.85 -77.723,-13.96 -102.637,-50.66 -49.879,-73.42 -87.492,-45.21 -133.551,-16.99 -26.019,15.95 -54.738,31.89 -89.883,29.5 -112.132,-7.6 -125.765,-114.54 -209.519,-111.34 -116.496,4.44 -232.629,-99.72 -126.277,-171.48" /><path
         id="path78"
         style="fill:#343e9d;fill-opacity:1;fill-rule:nonzero;stroke:none"
         d="m 467.641,1700.06 702.999,66.6 c -0.85,6.64 -1.68,13.27 -2.51,19.79 L 465.773,1719.9 c -5.48,-0.52 -9.507,-5.38 -8.992,-10.86 0.524,-5.48 5.383,-9.51 10.86,-8.98" /><path
         id="path80"
         style="fill:#3550aa;fill-opacity:1;fill-rule:nonzero;stroke:none"
         d="m 981.074,3445.25 -23.043,-0.46 -12.226,-0.24 -34.617,-0.69 c 0,0 -351.61,522.84 -162.188,711.52 58.309,58.08 168.637,19.41 159.785,-232.07 -8.199,-233.11 72.289,-478.06 72.289,-478.06" /><path
         id="path82"
         style="fill:#343e9d;fill-opacity:1;fill-rule:nonzero;stroke:none"
         d="m 958.031,3444.79 -12.226,-0.24 c -63.571,127.96 -100.137,267.34 -120.012,365.51 -23.609,116.57 -29.484,201.88 -29.527,202.72 -0.211,3.05 2.093,5.69 5.14,5.88 3.047,0.21 5.684,-2.1 5.883,-5.13 0.055,-0.86 5.879,-85.58 29.375,-201.46 19.992,-98.65 56.922,-239.15 121.367,-367.28" /><path
         id="path84"
         style="fill:#3566ba;fill-opacity:1;fill-rule:nonzero;stroke:none"
         d="m 1093.31,3417.17 -27.76,-18.52 -14.72,-9.82 -41.71,-27.82 c 0,0 -836.468,363.88 -752.405,741.7 25.875,116.31 190.621,155.11 375.812,-158.61 171.676,-290.8 460.783,-526.93 460.783,-526.93" /><path
         id="path86"
         style="fill:#3550aa;fill-opacity:1;fill-rule:nonzero;stroke:none"
         d="m 1065.55,3398.65 -14.72,-9.82 c -177.307,106.59 -330.533,248.13 -431.299,352.42 -119.652,123.81 -193.304,223.33 -194.023,224.33 -2.633,3.55 -1.871,8.56 1.695,11.17 3.555,2.63 8.567,1.87 11.176,-1.68 0.738,-1 73.871,-99.82 192.851,-222.9 101.274,-104.78 255.836,-247.42 434.32,-353.52" /><path
         id="path88"
         style="fill:#3566ba;fill-opacity:1;fill-rule:nonzero;stroke:none"
         d="m 209.473,2307.27 c 41.445,-139.34 180.605,-134.99 177.644,-248.12 -2.957,-113.1 68.117,-198.96 165.809,-178.24 97.715,20.74 168.461,41.46 213.043,-71.06 44.558,-112.52 186.676,-168.76 242.921,-79.92 14.03,22.1 29.16,46.06 43.96,69.56 4.03,6.43 8.07,12.82 12.04,19.12 0.93,1.46 1.86,2.91 2.76,4.37 59.56,94.55 39.89,219.86 -47.92,288.98 -35.55,27.97 -78.07,43.7 -126.289,29.5 -151.003,-44.4 -96.589,107.49 -186.55,171.73 -103.614,74.04 -192.5,-9.76 -263.5,53.31 -98.774,87.71 -275.364,80.11 -233.918,-59.23" /><path
         id="path90"
         style="fill:#3550aa;fill-opacity:1;fill-rule:nonzero;stroke:none"
         d="m 389.629,2247.03 663.221,-447.54 c 4.03,6.43 8.07,12.82 12.04,19.12 l -662.617,447.14 c -5.168,3.49 -12.195,2.13 -15.679,-3.04 -3.489,-5.16 -2.137,-12.19 3.035,-15.68" /><path
         id="path92"
         style="fill:#3566ba;fill-opacity:1;fill-rule:nonzero;stroke:none"
         d="M 4720.83,3477.15 C 4689.41,3335.21 4550.3,3329.62 4561.31,3217 c 11.01,-112.59 -53.76,-203.31 -152.69,-189.6 -98.94,13.73 -170.98,29.36 -207.44,-86.05 -36.42,-115.41 -174.18,-181.63 -236.61,-97.03 -15.56,21.05 -32.35,43.86 -48.8,66.26 -4.48,6.12 -8.96,12.21 -13.37,18.21 -1.02,1.39 -2.06,2.77 -3.06,4.15 -66.15,90.08 -55.45,216.47 27.2,291.67 33.47,30.43 74.77,49.15 123.87,38.43 153.79,-33.54 88.69,114.08 173.85,184.58 51.18,42.38 101.42,41.62 147.19,40.85 41.94,-0.7 80.12,-1.4 111.84,31.1 92.27,94.51 268.96,99.51 237.54,-42.42" /><path
         id="path94"
         style="fill:#3550aa;fill-opacity:1;fill-rule:nonzero;stroke:none"
         d="m 4545.43,3404.23 -629.66,-493.65 c -4.48,6.12 -8.96,12.21 -13.37,18.21 L 4531.48,3422 c 4.91,3.85 12.01,3 15.85,-1.91 3.85,-4.91 3,-12.01 -1.9,-15.86" /><path
         id="path96"
         style="fill:#f03f33;fill-opacity:1;fill-rule:nonzero;stroke:none"
         d="m 1297,3239.37 c 0,0 12.66,-38.78 52.23,-39.57 39.57,-0.79 0,49.07 0,49.07 0,0 28.97,-35.44 46.23,-30.08 17.27,5.37 -35.54,53.42 -60.08,54.21 -24.53,0.79 -38.38,-33.63 -38.38,-33.63" /><path
         id="path98"
         style="fill:#2c375c;fill-opacity:1;fill-rule:nonzero;stroke:none"
         d="M 4153.52,3729.79 V 1629.81 c 0,-35.14 -28.47,-63.62 -63.61,-63.62 H 902.066 c -35.136,0 -63.609,28.48 -63.609,63.62 v 2099.98 c 0,35.14 28.473,63.61 63.609,63.61 H 4089.91 c 35.14,0 63.61,-28.47 63.61,-63.61" /><path
         id="path100"
         style="fill:#ffffff;fill-opacity:1;fill-rule:nonzero;stroke:none"
         d="m 4065.6,3639.8 v -1920 c 0,-35.7 -28.9,-64.6 -64.6,-64.6 H 990.898 c -7.902,0 -15.402,1.4 -22.398,4.1 -24.598,9 -42.098,32.7 -42.098,60.5 v 1920 c 0,35.7 28.895,64.6 64.496,64.6 H 4001 c 8.6,0 16.9,-1.7 24.4,-4.8 23.6,-9.6 40.2,-32.8 40.2,-59.8" /><path
         id="path102"
         style="fill:#c5e0e3;fill-opacity:1;fill-rule:nonzero;stroke:none"
         d="m 4065.61,3639.83 v -95.58 H 926.371 v 95.58 c 0,35.67 28.899,64.56 64.563,64.56 H 4001.05 c 35.66,0 64.56,-28.89 64.56,-64.56" /><path
         id="path104"
         style="fill:#f68a85;fill-opacity:1;fill-rule:nonzero;stroke:none"
         d="m 3819.31,3624.33 c 0,-17.32 -14.04,-31.37 -31.36,-31.37 -17.32,0 -31.36,14.05 -31.36,31.37 0,17.32 14.04,31.35 31.36,31.35 17.32,0 31.36,-14.03 31.36,-31.35" /><path
         id="path106"
         style="fill:#3566ba;fill-opacity:1;fill-rule:nonzero;stroke:none"
         d="m 3703.27,3624.33 c 0,-17.32 -14.04,-31.37 -31.36,-31.37 -17.32,0 -31.35,14.05 -31.35,31.37 0,17.32 14.03,31.35 31.35,31.35 17.32,0 31.36,-14.03 31.36,-31.35" /><path
         id="path108"
         style="fill:#f03f33;fill-opacity:1;fill-rule:nonzero;stroke:none"
         d="m 3935.35,3624.33 c 0,-17.32 -14.04,-31.37 -31.37,-31.37 -17.31,0 -31.35,14.05 -31.35,31.37 0,17.32 14.04,31.35 31.35,31.35 17.33,0 31.37,-14.03 31.37,-31.35" /><path
         id="path110"
         style="fill:#1e1d33;fill-opacity:1;fill-rule:nonzero;stroke:none"
         d="m 2269.92,862.199 h 494.258 v 703.992 H 2269.92 Z" /><path
         id="path112"
         style="fill:#2c375c;fill-opacity:1;fill-rule:nonzero;stroke:none"
         d="M 3082.67,735.41 H 2010.21 v 14.988 c 0,75.153 60.92,136.063 136.06,136.063 h 800.33 c 75.15,0 136.07,-60.91 136.07,-136.063 V 735.41" /><path
         id="path114"
         style="fill:#1e1d33;fill-opacity:1;fill-rule:nonzero;stroke:none"
         d="M 3531.59,1527.8 H 3402.4 c -19.1,0 -34.58,15.49 -34.58,34.58 v 3.81 h 198.35 v -3.81 c 0,-19.09 -15.49,-34.58 -34.58,-34.58" /><path
         id="path116"
         style="fill:#1e1d33;fill-opacity:1;fill-rule:nonzero;stroke:none"
         d="m 3835.77,1527.8 h -129.18 c -19.1,0 -34.58,15.49 -34.58,34.58 v 3.81 h 198.34 v -3.81 c 0,-19.09 -15.48,-34.58 -34.58,-34.58" /><path
         id="path118"
         style="fill:#1e1d33;fill-opacity:1;fill-rule:nonzero;stroke:none"
         d="m 3227.4,1527.8 h -129.19 c -19.09,0 -34.58,15.49 -34.58,34.58 v 3.81 h 198.35 v -3.81 c 0,-19.09 -15.48,-34.58 -34.58,-34.58" /><path
         id="path120"
         style="fill:#c5e0e3;fill-opacity:1;fill-rule:nonzero;stroke:none"
         d="m 3575.88,3190.06 c 0,-58.89 -47.74,-106.63 -106.63,-106.63 H 1620.72 c -58.89,0 -106.63,47.74 -106.63,106.63 0,58.89 47.74,106.62 106.63,106.62 h 1848.53 c 58.89,0 106.63,-47.73 106.63,-106.62" /><path
         id="path122"
         style="fill:#3566ba;fill-opacity:1;fill-rule:nonzero;stroke:none"
         d="m 3469.25,3296.68 h -293 v -213.25 h 293 c 58.89,0 106.63,47.74 106.63,106.63 0,58.89 -47.74,106.62 -106.63,106.62" /><path
         id="path124"
         style="fill:#ffffff;fill-opacity:1;fill-rule:nonzero;stroke:none"
         d="m 3451.65,3230.63 c -13.63,12.58 -34.97,11.72 -47.56,-1.91 -12.58,-13.64 -11.73,-34.97 1.91,-47.56 13.64,-12.59 34.97,-11.73 47.55,1.91 12.59,13.63 11.73,34.97 -1.9,47.56 m -56.88,-61.65 c -20.36,18.79 -21.64,50.62 -2.86,70.98 18.79,20.34 50.63,21.62 70.98,2.84 20.35,-18.78 21.62,-50.62 2.84,-70.97 -18.78,-20.35 -50.61,-21.63 -70.96,-2.85" /><path
         id="path126"
         style="fill:#ffffff;fill-opacity:1;fill-rule:nonzero;stroke:none"
         d="m 3339.28,3108.87 c -3.36,3.1 -3.57,8.34 -0.47,11.71 l 55.49,60.11 c 3.09,3.36 8.34,3.57 11.7,0.47 3.37,-3.1 3.57,-8.34 0.47,-11.71 l -55.48,-60.11 c -3.11,-3.36 -8.34,-3.57 -11.71,-0.47" /><path
         id="path128"
         style="fill:#c5e0e3;fill-opacity:1;fill-rule:nonzero;stroke:none"
         d="m 1514.09,2828.51 c 0,-24.77 20.08,-44.85 44.86,-44.85 h 1972.08 c 24.77,0 44.85,20.08 44.85,44.85 0,24.77 -20.08,44.85 -44.85,44.85 H 1558.95 c -24.78,0 -44.86,-20.08 -44.86,-44.85" /><path
         id="path130"
         style="fill:#c5e0e3;fill-opacity:1;fill-rule:nonzero;stroke:none"
         d="m 1514.09,2634.2 c 0,-24.77 20.08,-44.85 44.86,-44.85 h 1972.08 c 24.77,0 44.85,20.08 44.85,44.85 0,24.77 -20.08,44.85 -44.85,44.85 H 1558.95 c -24.78,0 -44.86,-20.08 -44.86,-44.85" /><path
         id="path132"
         style="fill:#c5e0e3;fill-opacity:1;fill-rule:nonzero;stroke:none"
         d="m 1514.09,2439.89 c 0,-24.77 20.08,-44.85 44.86,-44.85 h 1972.08 c 24.77,0 44.85,20.08 44.85,44.85 0,24.77 -20.08,44.85 -44.85,44.85 H 1558.95 c -24.78,0 -44.86,-20.08 -44.86,-44.85" /><path
         id="path134"
         style="fill:#c5e0e3;fill-opacity:1;fill-rule:nonzero;stroke:none"
         d="m 3496.02,1869.93 h -185.13 c -44.1,0 -79.86,35.75 -79.86,79.86 v 185.12 c 0,44.11 35.76,79.87 79.86,79.87 h 185.13 c 44.11,0 79.86,-35.76 79.86,-79.87 v -185.12 c 0,-44.11 -35.75,-79.86 -79.86,-79.86" /><path
         id="path136"
         style="fill:#c5e0e3;fill-opacity:1;fill-rule:nonzero;stroke:none"
         d="m 3082.95,1869.93 h -185.13 c -44.1,0 -79.86,35.75 -79.86,79.86 v 185.12 c 0,44.11 35.76,79.87 79.86,79.87 h 185.13 c 44.11,0 79.86,-35.76 79.86,-79.87 v -185.12 c 0,-44.11 -35.75,-79.86 -79.86,-79.86" /><path
         id="path138"
         style="fill:#c5e0e3;fill-opacity:1;fill-rule:nonzero;stroke:none"
         d="m 2194.47,1869.93 h -185.13 c -44.1,0 -79.86,35.75 -79.86,79.86 v 185.12 c 0,44.11 35.76,79.87 79.86,79.87 h 185.13 c 44.11,0 79.86,-35.76 79.86,-79.87 v -185.12 c 0,-44.11 -35.75,-79.86 -79.86,-79.86" /><path
         id="path140"
         style="fill:#c5e0e3;fill-opacity:1;fill-rule:nonzero;stroke:none"
         d="m 1781.4,1869.93 h -185.13 c -44.1,0 -79.85,35.75 -79.85,79.86 v 185.12 c 0,44.11 35.75,79.87 79.85,79.87 h 185.13 c 44.11,0 79.86,-35.76 79.86,-79.87 v -185.12 c 0,-44.11 -35.75,-79.86 -79.86,-79.86" /><path
         id="path142"
         style="fill:#ffffff;fill-opacity:1;fill-rule:nonzero;stroke:none"
         d="M 4001,1655.2 H 990.898 c -7.902,0 -15.402,1.4 -22.398,4.1 l 547.92,365.7 v -75.21 c 0,-44.11 35.75,-79.86 79.85,-79.86 h 185.13 c 44.11,0 79.86,35.75 79.86,79.86 v 185.12 c 0,38.38 -27.06,70.42 -63.14,78.11 l 272.71,182.02 h 1460.2 c 24.77,0 44.85,20.08 44.85,44.85 0,24.77 -20.08,44.85 -44.85,44.85 H 2205.22 l 156.73,104.61 h 1169.08 c 24.77,0 44.85,20.08 44.85,44.85 0,24.77 -20.08,44.85 -44.85,44.85 h -501.91 c 13.84,8.61 27.35,18.01 40.52,28.22 29.53,22.89 55.63,48.58 78.2,76.39 h 383.19 c 24.77,0 44.85,20.08 44.85,44.85 0,24.77 -20.08,44.85 -44.85,44.85 h -325.88 c 32.16,65.64 48.59,137.65 48.53,210.07 h 215.57 c 58.89,0 106.63,47.74 106.63,106.63 v 0 c 0,58.89 -47.74,106.62 -106.63,106.62 h -47.52 l 370.92,247.57 h 272.96 L 4065.6,1719.8 c 0,-35.7 -28.9,-64.6 -64.6,-64.6 m -690.11,559.58 c -44.1,0 -79.86,-35.76 -79.86,-79.87 v -185.12 c 0,-44.11 35.76,-79.86 79.86,-79.86 h 185.13 c 44.11,0 79.86,35.75 79.86,79.86 v 185.12 c 0,44.11 -35.75,79.87 -79.86,79.87 h -185.13 m -413.07,0 c -44.1,0 -79.86,-35.76 -79.86,-79.87 v -185.12 c 0,-44.11 35.76,-79.86 79.86,-79.86 h 185.13 c 44.11,0 79.86,35.75 79.86,79.86 v 185.12 c 0,44.11 -35.75,79.87 -79.86,79.87 h -185.13 m -888.48,0 c -44.1,0 -79.86,-35.76 -79.86,-79.87 v -185.12 c 0,-44.11 35.76,-79.86 79.86,-79.86 h 185.13 c 44.11,0 79.86,35.75 79.86,79.86 v 185.12 c 0,44.11 -35.75,79.87 -79.86,79.87 h -185.13" /><path
         id="path144"
         style="fill:#d4e9ea;fill-opacity:1;fill-rule:nonzero;stroke:none"
         d="m 4065.61,3544.25 h -272.96 l 88.22,58.88 c 5.73,-6.25 13.97,-10.17 23.11,-10.17 17.33,0 31.37,14.05 31.37,31.37 0,4.72 -1.04,9.2 -2.92,13.22 l 92.97,62.05 c 23.6,-9.6 40.2,-32.8 40.2,-59.8 v -95.55" /><path
         id="path146"
         style="fill:#f46c5c;fill-opacity:1;fill-rule:nonzero;stroke:none"
         d="m 3903.98,3592.96 c -9.14,0 -17.38,3.92 -23.11,10.17 l 51.56,34.42 c 1.88,-4.02 2.92,-8.5 2.92,-13.22 0,-17.32 -14.04,-31.37 -31.37,-31.37" /><path
         id="path148"
         style="fill:#4a90d4;fill-opacity:1;fill-rule:nonzero;stroke:none"
         d="m 3469.25,3083.43 h -215.57 c -0.02,31.66 -3.19,63.39 -9.58,94.7 l 177.63,118.55 h 47.52 c 58.89,0 106.63,-47.73 106.63,-106.62 v 0 c 0,-58.89 -47.74,-106.63 -106.63,-106.63 m -80.11,91.68 -50.33,-54.53 c -3.1,-3.37 -2.89,-8.61 0.47,-11.71 1.59,-1.47 3.61,-2.2 5.62,-2.2 2.23,0 4.45,0.9 6.09,2.67 l 50.33,54.53 c 8.34,-5.47 17.92,-8.18 27.49,-8.18 13.54,0 27.04,5.43 36.92,16.14 18.78,20.35 17.51,52.19 -2.84,70.97 -9.64,8.9 -21.86,13.29 -34.04,13.29 -13.54,0 -27.05,-5.43 -36.94,-16.13 -16.86,-18.28 -17.55,-45.82 -2.77,-64.85 m 39.67,-2.86 c -8.16,0 -16.35,2.95 -22.81,8.91 -13.64,12.59 -14.49,33.92 -1.91,47.56 6.63,7.17 15.68,10.81 24.75,10.81 8.17,0 16.35,-2.94 22.81,-8.9 13.63,-12.59 14.49,-33.93 1.9,-47.56 -6.62,-7.18 -15.67,-10.82 -24.74,-10.82" /><path
         id="path150"
         style="fill:#ffffff;fill-opacity:1;fill-rule:nonzero;stroke:none"
         d="m 3428.81,3155.69 c -9.57,0 -19.15,2.71 -27.49,8.18 l 5.15,5.58 c 3.1,3.37 2.9,8.61 -0.47,11.71 -1.6,1.47 -3.61,2.2 -5.62,2.2 -2.23,0 -4.45,-0.9 -6.08,-2.67 l -5.16,-5.58 c -14.78,19.03 -14.09,46.57 2.77,64.85 9.89,10.7 23.4,16.13 36.94,16.13 12.18,0 24.4,-4.39 34.04,-13.29 20.35,-18.78 21.62,-50.62 2.84,-70.97 -9.88,-10.71 -23.38,-16.14 -36.92,-16.14 m 0.03,83.84 c -9.07,0 -18.12,-3.64 -24.75,-10.81 -12.58,-13.64 -11.73,-34.97 1.91,-47.56 6.46,-5.96 14.65,-8.91 22.81,-8.91 9.07,0 18.12,3.64 24.74,10.82 12.59,13.63 11.73,34.97 -1.9,47.56 -6.46,5.96 -14.64,8.9 -22.81,8.9" /><path
         id="path152"
         style="fill:#ffffff;fill-opacity:1;fill-rule:nonzero;stroke:none"
         d="m 2527.88,2679.05 h -31.52 l 15.54,10.38 c 5.27,-3.58 10.59,-7.03 15.98,-10.38" /><path
         id="path154"
         style="fill:#ffffff;fill-opacity:1;fill-rule:nonzero;stroke:none"
         d="m 3344.9,3106.67 c -2.01,0 -4.03,0.73 -5.62,2.2 -3.36,3.1 -3.57,8.34 -0.47,11.71 l 50.33,54.53 5.16,5.58 c 1.63,1.77 3.85,2.67 6.08,2.67 2.01,0 4.02,-0.73 5.62,-2.2 3.37,-3.1 3.57,-8.34 0.47,-11.71 l -5.15,-5.58 -50.33,-54.53 c -1.64,-1.77 -3.86,-2.67 -6.09,-2.67" /><path
         id="path156"
         style="fill:#d4e9ea;fill-opacity:1;fill-rule:nonzero;stroke:none"
         d="m 3531.03,2783.66 h -383.19 c 22.69,27.97 41.82,58.1 57.31,89.7 h 325.88 c 24.77,0 44.85,-20.08 44.85,-44.85 0,-24.77 -20.08,-44.85 -44.85,-44.85" /><path
         id="path158"
         style="fill:#d4e9ea;fill-opacity:1;fill-rule:nonzero;stroke:none"
         d="M 3531.03,2589.35 H 2361.95 l 134.41,89.7 h 31.52 c 75.94,-47.14 163.21,-71.4 251.04,-71.4 86.22,-0.01 173,23.37 250.2,71.4 h 501.91 c 24.77,0 44.85,-20.08 44.85,-44.85 0,-24.77 -20.08,-44.85 -44.85,-44.85" /><path
         id="path160"
         style="fill:#d4e9ea;fill-opacity:1;fill-rule:nonzero;stroke:none"
         d="m 3531.03,2395.04 h -1460.2 l 134.39,89.7 h 1325.81 c 24.77,0 44.85,-20.08 44.85,-44.85 0,-24.77 -20.08,-44.85 -44.85,-44.85" /><path
         id="path162"
         style="fill:#d4e9ea;fill-opacity:1;fill-rule:nonzero;stroke:none"
         d="m 3496.02,1869.93 h -185.13 c -44.1,0 -79.86,35.75 -79.86,79.86 v 185.12 c 0,44.11 35.76,79.87 79.86,79.87 h 185.13 c 44.11,0 79.86,-35.76 79.86,-79.87 v -185.12 c 0,-44.11 -35.75,-79.86 -79.86,-79.86" /><path
         id="path164"
         style="fill:#d4e9ea;fill-opacity:1;fill-rule:nonzero;stroke:none"
         d="m 3082.95,1869.93 h -185.13 c -44.1,0 -79.86,35.75 -79.86,79.86 v 185.12 c 0,44.11 35.76,79.87 79.86,79.87 h 185.13 c 44.11,0 79.86,-35.76 79.86,-79.87 v -185.12 c 0,-44.11 -35.75,-79.86 -79.86,-79.86" /><path
         id="path166"
         style="fill:#d4e9ea;fill-opacity:1;fill-rule:nonzero;stroke:none"
         d="m 2194.47,1869.93 h -185.13 c -44.1,0 -79.86,35.75 -79.86,79.86 v 185.12 c 0,44.11 35.76,79.87 79.86,79.87 h 185.13 c 44.11,0 79.86,-35.76 79.86,-79.87 v -185.12 c 0,-44.11 -35.75,-79.86 -79.86,-79.86" /><path
         id="path168"
         style="fill:#d4e9ea;fill-opacity:1;fill-rule:nonzero;stroke:none"
         d="m 1781.4,1869.93 h -185.13 c -44.1,0 -79.85,35.75 -79.85,79.86 V 2025 l 281.7,188.02 c 36.08,-7.69 63.14,-39.73 63.14,-78.11 v -185.12 c 0,-44.11 -35.75,-79.86 -79.86,-79.86" /><path
         id="path170"
         style="fill:#ffffff;fill-opacity:1;fill-rule:nonzero;stroke:none"
         d="m 2884.76,2694.79 c 24.73,6.77 48.3,15.72 70.54,26.59 -22.86,-11.18 -46.5,-20.04 -70.54,-26.59 m -232.9,6.35 c -25.36,8.37 -49.96,19.29 -73.41,32.7 l 0.19,0.13 c 23.21,-13.31 47.74,-24.33 73.22,-32.83 m 372.19,62.97 c 8.07,6.24 15.88,12.76 23.4,19.55 h 0.09 c -7.23,-6.49 -14.74,-12.77 -22.54,-18.81 -0.32,-0.25 -0.63,-0.49 -0.95,-0.74 m 97.98,109.25 h -0.25 c 15.77,25.87 28.64,53.48 38.29,82.31 -9.47,-28.58 -22.18,-56.22 -38.04,-82.31" /><path
         id="path172"
         style="fill:#d4e9ea;fill-opacity:1;fill-rule:nonzero;stroke:none"
         d="m 3047.54,2783.66 h -0.09 c 29.11,26.26 54.11,56.54 74.33,89.7 h 0.25 c -19.91,-32.73 -44.79,-63.03 -74.49,-89.7" /><path
         id="path174"
         style="fill:#f68a85;fill-opacity:1;fill-rule:nonzero;stroke:none"
         d="m 2277.21,3034.46 20.16,-61.7 c -63.62,-37.29 -224.09,-125 -295.63,-151.3 -21.24,-7.81 -50.97,-17.51 -84.76,-28 -12.89,-4 -26.37,-8.14 -40.23,-12.31 -11.93,-3.58 -24.11,-7.19 -36.4,-10.82 l -1.65,-0.48 c -16.29,-1.9 -36.95,-4.21 -60.4,-6.63 l 0.21,98.32 38.64,10.71 22.74,6.28 32.09,8.87 70.24,19.43 c 52.57,32.4 281.41,99.4 334.99,127.63" /><path
         id="path176"
         style="fill:#f68a85;fill-opacity:1;fill-rule:nonzero;stroke:none"
         d="m 2367.63,3071.94 c 1.74,0.66 22.76,8.43 28.94,-0.32 6.45,-9.11 -0.96,-18.3 -0.96,-18.3 0,0 15.44,-8.7 15.84,-17.68 0.38,-8.98 -6.96,-15.13 -6.96,-15.13 0,0 9.91,-4.87 9.61,-13.37 -0.28,-8.5 -11.96,-20.94 -29.27,-25.51 -15.36,-4.03 -23,-0.78 -24.49,-0.02 l -0.28,0.18 c 0,0 -2.85,-1.07 -7.84,-2.73 -8.33,-2.78 -22.63,-7.21 -39.35,-10.95 -26.72,-5.98 -59.79,30.79 -62.22,54.52 0,0 9.79,31.81 21.02,50.12 11.23,18.29 19.37,22.6 32.97,20.81 13.6,-1.79 26.94,-6.35 29.87,-5.83 2.93,0.51 72.3,36.53 88.21,31.89 15.57,-4.54 -52.08,-45.84 -55.09,-47.68" /><path
         id="path178"
         style="fill:#f3665c;fill-opacity:1;fill-rule:nonzero;stroke:none"
         d="m 2292.47,3040 -1.8,0.45 c -1.83,1 -2.52,3.3 -1.52,5.13 l 8.4,15.56 c 0.51,0.94 1.38,1.62 2.41,1.88 1.03,0.26 2.12,0.07 3,-0.52 0.17,-0.1 17.37,-11.21 33.16,-7.27 4.83,1.22 8.08,3.22 9.39,5.81 1.49,2.92 0.25,6.06 0.23,6.09 -0.78,1.92 0.12,4.13 2.04,4.94 1.9,0.8 4.1,-0.07 4.93,-1.97 0.27,-0.63 2.58,-6.35 -0.38,-12.34 -2.33,-4.75 -7.17,-8.06 -14.37,-9.86 -14.45,-3.62 -29.04,2.72 -35.6,6.22 l -6.56,-12.14 c -0.68,-1.26 -1.99,-1.98 -3.33,-1.98" /><path
         id="path180"
         style="fill:#f3665c;fill-opacity:1;fill-rule:nonzero;stroke:none"
         d="m 2360.34,2981.61 -0.28,0.18 c 0,0 -2.85,-1.07 -7.84,-2.73 -6.64,7.82 -7.12,17.18 -7.55,25.05 -0.35,6.84 -0.68,12.76 -4.28,17.08 -3.73,4.44 -5.25,9.36 -5.53,14.05 -0.32,4.52 0.53,8.85 1.64,12.36 0.4,1.31 0.83,2.52 1.26,3.56 1.11,2.72 2.15,4.46 2.27,4.69 1.09,1.79 3.41,2.4 5.2,1.31 1.79,-1.06 2.37,-3.38 1.31,-5.17 l -0.43,-0.81 c -1.08,-2.06 -3.7,-7.85 -3.7,-14.08 0,-3.76 0.95,-7.69 3.78,-11.07 5.22,-6.23 5.65,-14 6.05,-21.52 0.46,-8.52 0.89,-16.64 8.1,-22.9" /><path
         id="path182"
         style="fill:#f3665c;fill-opacity:1;fill-rule:nonzero;stroke:none"
         d="m 2307.71,3009.69 c -1.42,0 -2.78,0.8 -3.42,2.18 -0.89,1.88 -0.08,4.14 1.81,5.02 0.23,0.11 22.67,10.98 24.93,32.36 0.22,2.08 2.1,3.59 4.16,3.37 2.08,-0.22 3.58,-2.09 3.36,-4.16 -2.71,-25.68 -28.14,-37.9 -29.23,-38.41 l -1.61,-0.36" /><path
         id="path184"
         style="fill:#f3665c;fill-opacity:1;fill-rule:nonzero;stroke:none"
         d="m 1840.34,2770.32 c 26.58,7.85 52.63,15.68 76.64,23.13 -4.67,44.63 -26.74,75.55 -45.01,93.96 l -54.82,-15.16 23.19,-101.93" /><path
         id="path186"
         style="fill:#3566ba;fill-opacity:1;fill-rule:nonzero;stroke:none"
         d="m 1853.95,2752.86 c 0,0 -77.19,-31.43 -151.38,-38.42 -25.89,-2.48 -51.39,-1.94 -73.14,3.93 l -13.24,24.34 -74.47,136.86 c 0,0 175.17,-35.07 288.88,5.3 0,0 25.04,-70.64 23.35,-132.01" /><path
         id="path188"
         style="fill:#3550aa;fill-opacity:1;fill-rule:nonzero;stroke:none"
         d="m 1702.57,2714.44 c -25.89,-2.48 -51.39,-1.94 -73.14,3.93 l -13.24,24.34 c 2.77,12.22 9.84,22.23 23.61,27.6 0,0 17.49,-35.56 62.77,-55.87" /><path
         id="path190"
         style="fill:#f68a85;fill-opacity:1;fill-rule:nonzero;stroke:none"
         d="m 1122.69,1005.57 -58.12,-77.742 c 0,0 10.62,-34.746 53.65,-61.527 l 69.51,89.437 -65.04,49.832" /><path
         id="path192"
         style="fill:#f03f33;fill-opacity:1;fill-rule:nonzero;stroke:none"
         d="m 1108.57,890.379 c 0,0 27.2,5.859 36.5,-3.539 9.3,-9.41 32.64,-137.301 54.49,-165.281 21.85,-27.977 -0.15,-42.84 -13.59,-48.508 -13.45,-5.672 -206.099,186.789 -206.099,186.789 0,0 47.629,65.801 70.589,78.582 22.97,12.777 33.74,-34.5 58.11,-48.043" /><path
         id="path194"
         style="fill:#ffffff;fill-opacity:1;fill-rule:nonzero;stroke:none"
         d="m 1113.75,810.852 c -1.17,0.539 -2.13,1.527 -2.58,2.839 -0.89,2.547 0.46,5.329 3,6.207 0.85,0.313 21.04,7.211 36.59,3.223 20.69,-5.312 24.78,-23.211 24.95,-23.973 0.57,-2.628 -1.11,-5.226 -3.74,-5.796 -2.63,-0.582 -5.24,1.097 -5.81,3.738 -0.11,0.48 -3.12,12.769 -17.84,16.558 -12.66,3.262 -30.76,-2.906 -30.94,-2.976 -1.24,-0.422 -2.53,-0.32 -3.63,0.18" /><path
         id="path196"
         style="fill:#ffffff;fill-opacity:1;fill-rule:nonzero;stroke:none"
         d="m 1111.85,830.781 c -1.17,0.539 -2.13,1.528 -2.59,2.84 -0.88,2.551 0.46,5.34 3.01,6.219 0.85,0.301 21.04,7.211 36.58,3.219 20.71,-5.321 24.79,-23.207 24.95,-23.969 0.58,-2.629 -1.09,-5.231 -3.73,-5.801 -2.64,-0.578 -5.24,1.09 -5.81,3.742 -0.11,0.481 -3.12,12.77 -17.84,16.559 -12.72,3.281 -30.76,-2.91 -30.94,-2.969 -1.24,-0.43 -2.53,-0.34 -3.63,0.16" /><path
         id="path198"
         style="fill:#ffffff;fill-opacity:1;fill-rule:nonzero;stroke:none"
         d="m 1121.26,789.461 c -1.17,0.527 -2.13,1.531 -2.59,2.828 -0.88,2.551 0.46,5.34 3.01,6.231 0.85,0.3 21.04,7.199 36.58,3.21 20.71,-5.3 24.79,-23.199 24.96,-23.968 0.57,-2.621 -1.11,-5.231 -3.74,-5.801 -2.63,-0.57 -5.24,1.109 -5.81,3.738 -0.11,0.492 -3.12,12.781 -17.84,16.571 -12.72,3.269 -30.76,-2.911 -30.94,-2.981 -1.24,-0.43 -2.53,-0.328 -3.63,0.172" /><path
         id="path200"
         style="fill:#f68a85;fill-opacity:1;fill-rule:nonzero;stroke:none"
         d="m 1479.18,872.082 8.82,-96.66 c 0,0 31.14,-18.731 81.04,-9.84 l -8.18,112.977 -81.68,-6.477" /><path
         id="path202"
         style="fill:#f03f33;fill-opacity:1;fill-rule:nonzero;stroke:none"
         d="m 1551.43,779.172 c 0,0 17,23.527 30.78,22.726 13.79,-0.796 121.21,-83.718 157.7,-90.156 36.49,-6.461 29.81,-33.351 23.34,-47.14 -6.47,-13.793 -288.94,-5.883 -288.94,-5.883 0,0 -10.41,91.179 -1.52,117.14 8.89,25.95 50.27,-3.207 78.64,3.313" /><path
         id="path204"
         style="fill:#ffffff;fill-opacity:1;fill-rule:nonzero;stroke:none"
         d="m 1610.99,721.082 c -1.29,-0.41 -2.73,-0.301 -4,0.387 -2.46,1.371 -3.36,4.472 -2,6.929 0.45,0.832 11.28,20.282 26.14,28.043 19.75,10.34 35.43,-0.699 36.09,-1.171 2.28,-1.641 2.8,-4.829 1.15,-7.122 -1.64,-2.277 -4.83,-2.796 -7.12,-1.148 -0.42,0.301 -11.33,7.742 -25.41,0.398 -12.09,-6.316 -21.83,-23.75 -21.92,-23.918 -0.66,-1.191 -1.73,-2.019 -2.93,-2.398" /><path
         id="path206"
         style="fill:#ffffff;fill-opacity:1;fill-rule:nonzero;stroke:none"
         d="m 1595.59,735.211 c -1.29,-0.402 -2.72,-0.301 -4,0.41 -2.46,1.348 -3.36,4.449 -2.01,6.918 0.46,0.82 11.29,20.281 26.14,28.043 19.78,10.34 35.44,-0.691 36.1,-1.172 2.28,-1.648 2.8,-4.828 1.15,-7.121 -1.64,-2.277 -4.83,-2.797 -7.12,-1.148 -0.43,0.308 -11.34,7.738 -25.41,0.398 -12.15,-6.34 -21.83,-23.75 -21.92,-23.918 -0.66,-1.191 -1.73,-2.019 -2.93,-2.41" /><path
         id="path208"
         style="fill:#ffffff;fill-opacity:1;fill-rule:nonzero;stroke:none"
         d="m 1631.74,709.73 c -1.28,-0.398 -2.71,-0.308 -3.99,0.391 -2.46,1.359 -3.36,4.461 -2,6.93 0.45,0.82 11.29,20.281 26.14,28.039 19.77,10.34 35.43,-0.692 36.09,-1.16 2.28,-1.649 2.8,-4.84 1.16,-7.121 -1.64,-2.278 -4.84,-2.809 -7.12,-1.161 -0.43,0.313 -11.35,7.743 -25.41,0.403 -12.16,-6.34 -21.83,-23.75 -21.93,-23.922 -0.66,-1.188 -1.73,-2.02 -2.94,-2.399" /><path
         id="path210"
         style="fill:#1e1d33;fill-opacity:1;fill-rule:nonzero;stroke:none"
         d="m 1425.01,1921.32 -58.7,-485.83 c 0,0 -52.66,-71.47 -102.86,-162.91 -42.14,-76.74 -154.42,-275.889 -154.42,-275.889 l 67.91,-51.769 371.93,385.428 99.02,595.69 -222.88,-4.72" /><path
         id="path212"
         style="fill:#2c375c;fill-opacity:1;fill-rule:nonzero;stroke:none"
         d="m 1193.68,946.16 c -6.1,-15.32 -17.5,-25.738 -30.82,-34.5 L 1084,978.262 c 6.61,13.976 15.66,26.068 26.87,36.478 l 82.81,-68.58" /><path
         id="path214"
         style="fill:#2c375c;fill-opacity:1;fill-rule:nonzero;stroke:none"
         d="m 1124.64,1901.24 c 0,0 104.74,-257.52 240.86,-458.33 0,0 20.33,-195.43 55.1,-299.46 15.22,-45.56 44.7,-261.38 44.7,-261.38 l 103.27,4.692 -26.65,600.078 -109.24,434.63 -308.04,-20.23" /><path
         id="path216"
         style="fill:#305d80;fill-opacity:1;fill-rule:nonzero;stroke:none"
         d="m 1578.17,890.301 c 6.56,-17.949 4.75,-35.742 0,-53.582 l -119.51,-3.34 c -5.08,17.18 -6.58,34.601 -4.94,52.242 l 124.45,4.68" /><path
         id="path218"
         style="fill:#3566ba;fill-opacity:1;fill-rule:nonzero;stroke:none"
         d="m 1663.44,1934.67 c 0,-21.12 -0.05,-37.86 -0.2,-49.17 -50.03,-13.47 -100.02,-23.23 -150.02,-29.21 -1.32,-0.15 -2.65,-0.32 -3.99,-0.48 -2.24,-0.27 -4.44,-0.53 -6.66,-0.78 l -1.66,-0.16 c -8.68,-0.95 -17.31,-1.78 -26.01,-2.49 -42.99,-3.53 -85.97,-4.31 -128.96,-2.32 -3.78,0.17 -7.52,0.38 -11.3,0.6 -3.36,0.18 -6.76,0.38 -10.17,0.64 -1.51,0.07 -3.05,0.17 -4.59,0.3 -2.87,0.2 -5.7,0.43 -8.57,0.63 -63.17,5.12 -126.33,16.17 -189.48,33.27 -0.33,24.87 -0.63,75.55 -0.73,140.92 0,3.58 -0.03,7.21 0,10.89 -0.07,72.1 0.2,160.59 1.06,251.71 0.08,7.22 0.15,14.41 0.25,21.64 0.08,8.35 0.15,16.75 0.26,25.18 0.02,1.42 0.02,2.85 0.04,4.27 0.05,1.96 0.08,3.93 0.11,5.93 0.02,3.95 0.07,7.93 0.15,11.87 0.07,5.78 0.15,11.53 0.25,17.26 0.05,4.36 0.12,8.73 0.17,13.09 0.13,8.68 0.28,17.36 0.41,25.99 3.05,180.89 9.16,347.13 20.78,389.44 1.09,3.91 2.23,6.76 3.36,8.45 1.23,1.89 2.78,3.78 4.49,5.75 2.17,2.47 4.69,5.02 7.52,7.59 19.37,17.84 52.97,38.55 87.06,58.2 3.96,2.3 7.97,4.57 11.9,6.84 l 93.19,31.71 96.23,-6.74 c 11.56,-6.78 102.6,-37.74 113.77,-44.7 3.31,-2.07 6.57,-4.14 9.77,-6.18 26.18,-16.88 48.43,-33.65 58.14,-47.91 14,-20.58 22.48,-205.26 27.38,-406.19 0.12,-4.64 0.22,-9.26 0.35,-13.87 0.5,-21.27 0.96,-42.64 1.39,-64 0.43,-21.09 0.8,-42.13 1.16,-63.02 0.55,-34.18 1.06,-67.83 1.46,-100.25 0.05,-3.68 0.08,-7.34 0.13,-11 0.38,-31.6 0.68,-61.91 0.9,-90.21 0.03,-3.71 0.06,-7.36 0.08,-10.99 0.33,-42.48 0.53,-80.1 0.55,-110.3 v -0.01 c 0.03,-4.24 0.03,-8.26 0.03,-12.19" /><path
         id="path220"
         style="fill:#3550aa;fill-opacity:1;fill-rule:nonzero;stroke:none"
         d="m 1217.41,2568.17 c 0,4.78 -6.09,6.87 -8.98,3.07 -38.67,-50.95 -62.01,-106.48 -75.8,-150.39 -3.53,-11.27 -6.59,-22.2 -9.24,-32.59 -0.05,-4.36 -0.12,-8.73 -0.17,-13.09 -0.1,-5.73 -0.18,-11.48 -0.25,-17.26 -0.08,-3.94 -0.13,-7.92 -0.15,-11.87 -0.03,-2 -0.06,-3.97 -0.11,-5.93 -0.02,-1.42 -0.02,-2.85 -0.04,-4.27 3.63,22 9.65,50.7 19.57,82.28 13.52,42.96 36.39,97.29 74.16,147.05 0.66,0.86 1.01,1.91 1.01,3" /><path
         id="path222"
         style="fill:#3550aa;fill-opacity:1;fill-rule:nonzero;stroke:none"
         d="m 1237,2116.57 h 0.02 c 103.92,0.46 192.62,47.75 248.73,87.34 60.69,42.82 97.46,86.2 97.83,86.64 1.78,2.11 1.51,5.26 -0.61,7.04 -2.12,1.78 -5.26,1.5 -7.04,-0.61 -0.36,-0.43 -36.47,-42.99 -96.17,-85.06 -54.89,-38.69 -141.57,-84.9 -242.79,-85.35 -2.76,-0.01 -4.99,-2.25 -4.97,-5.02 0.01,-2.75 2.24,-4.98 5,-4.98" /><path
         id="path224"
         style="fill:#3550aa;fill-opacity:1;fill-rule:nonzero;stroke:none"
         d="m 1345.3,2081.26 c 90.18,0 180.1,51.39 184.19,53.76 2.39,1.38 3.21,4.43 1.82,6.83 -1.38,2.39 -4.44,3.2 -6.83,1.82 -1.06,-0.6 -106.87,-61.03 -200.69,-51.33 -2.78,0.32 -5.2,-1.72 -5.48,-4.46 -0.29,-2.74 1.71,-5.2 4.45,-5.49 7.48,-0.77 15.01,-1.13 22.54,-1.13" /><path
         id="path226"
         style="fill:#3550aa;fill-opacity:1;fill-rule:nonzero;stroke:none"
         d="m 1425.14,2713.02 c 2.36,0 4.45,1.67 4.9,4.06 0.52,2.72 -1.26,5.34 -3.98,5.85 -126.69,24.04 -164.88,105.55 -165.25,106.37 -1.14,2.52 -4.1,3.63 -6.62,2.5 -2.52,-1.14 -3.63,-4.1 -2.5,-6.62 1.61,-3.54 40.76,-87.07 172.51,-112.07 l 0.94,-0.09" /><path
         id="path228"
         style="fill:#f68a85;fill-opacity:1;fill-rule:nonzero;stroke:none"
         d="m 949.031,1778.96 c -2.359,-25.68 28.914,-11.75 20.067,40.29 -8.821,52.04 16.246,99.16 27.054,97.65 10.838,-1.53 -8.957,-56.82 0.672,-76.75 9.606,-19.93 22.026,18.8 34.406,42.28 12.82,24.39 12.07,77.61 6.23,115.59 -5.83,38 63.02,268.73 63.37,335.58 l 8.39,28.35 30.71,103.78 48.09,162.53 c 0,0 -28.81,123.01 -77.38,112.44 0,0 -25.71,-85.69 -53.19,-182.32 -4.66,-16.4 -9.36,-33.13 -14.02,-49.8 -19.57,-70.06 -37.97,-139.23 -46.52,-180.28 -22.594,-108.35 -24.344,-333.59 -24.344,-333.59 0,0 -39.855,-82.76 -40.796,-119.57 -0.993,-39.27 19.609,-70.49 17.261,-96.18" /><path
         id="path230"
         style="fill:#f3665c;fill-opacity:1;fill-rule:nonzero;stroke:none"
         d="m 1043.43,2508.58 65.79,-146.63 30.71,103.78 -82.48,92.65 c -4.66,-16.4 -9.36,-33.13 -14.02,-49.8" /><path
         id="path232"
         style="fill:#3566ba;fill-opacity:1;fill-rule:nonzero;stroke:none"
         d="m 1040.17,2552.25 c 28.86,-49.49 58.2,-98.7 87.44,-147.99 9.63,32.24 19.6,63.19 28.96,91.65 l 0.08,0.21 c 3.74,11.38 7.4,22.35 10.89,32.84 l 0.19,0.54 c 1.22,3.68 2.4,7.32 3.61,10.87 v 0.02 c 13.95,42.2 24.76,75.73 27.86,95.29 8.33,52.63 -14.39,155.74 -46.39,176.07 -0.84,-1.85 -3.36,3.87 -4.87,0.38 -5.62,-12.99 -30.58,-45.07 -42.93,-76.32 -1.58,-3.98 -3.19,-8.12 -4.86,-12.35 -17.89,-45.96 -39.75,-105.75 -59.98,-171.21" /><path
         id="path234"
         style="fill:#1e1d33;fill-opacity:1;fill-rule:nonzero;stroke:none"
         d="m 966.582,2080.18 c 0,0 62.428,4.62 88.908,-14.29 l -5.54,-36.54 c 0,0 -72.962,8.17 -89.989,7.22 0,0 -1.676,36.1 6.621,43.61" /><path
         id="path236"
         style="fill:#2c375c;fill-opacity:1;fill-rule:nonzero;stroke:none"
         d="m 998.031,2055.55 c 0,-16.75 -11.273,-30.34 -25.183,-30.34 -13.907,0 -25.18,13.59 -25.18,30.34 0,16.74 11.273,30.32 25.18,30.32 13.91,0 25.183,-13.58 25.183,-30.32" /><path
         id="path238"
         style="fill:#305d80;fill-opacity:1;fill-rule:nonzero;stroke:none"
         d="m 986.988,2056.6 c 0,-12.24 -8.25,-22.18 -18.418,-22.18 -10.175,0 -18.425,9.94 -18.425,22.18 0,12.26 8.25,22.19 18.425,22.19 10.168,0 18.418,-9.93 18.418,-22.19" /><path
         id="path240"
         style="fill:#2c375c;fill-opacity:1;fill-rule:nonzero;stroke:none"
         d="m 1252.2,3168.45 c 0,-83.55 51.43,-141.12 134.97,-141.12 83.55,0 141.78,61.9 141.78,145.45 0,83.54 -49.48,146.83 -133.02,146.83 -100.2,0 -143.73,-67.62 -143.73,-151.16" /><path
         id="path242"
         style="fill:#2c375c;fill-opacity:1;fill-rule:nonzero;stroke:none"
         d="m 1261.69,3118.5 c 0,0 -18.33,21.96 -15.95,78.35 2.37,56.38 21.36,72.41 21.36,72.41 0,0 -23.74,40.36 -1.78,52.23 21.97,11.87 40.96,0 40.96,0 0,0 -16.03,24.93 0,28.49 16.02,3.56 39.09,-11.28 39.09,-11.28 0,0 114.03,42.74 149.65,17.8 35.61,-24.92 11.84,-99.16 2.45,-107.5 l -235.78,-130.5" /><path
         id="path244"
         style="fill:#f3665c;fill-opacity:1;fill-rule:nonzero;stroke:none"
         d="m 1270.97,3132.48 c 0,0 -23.22,30.94 -40.48,5.35 -17.26,-25.59 7.15,-101.17 49.4,-82.73 l -8.92,77.38" /><path
         id="path246"
         style="fill:#ce4045;fill-opacity:1;fill-rule:nonzero;stroke:none"
         d="m 1270.66,3078.46 c -1.55,0 -2.99,1.04 -3.43,2.61 -6.55,23.33 -30.73,32.8 -30.97,32.89 -1.84,0.7 -2.77,2.76 -2.07,4.6 0.7,1.85 2.76,2.77 4.6,2.08 1.13,-0.43 27.77,-10.77 35.32,-37.64 0.53,-1.9 -0.58,-3.87 -2.48,-4.4 l -0.97,-0.14" /><path
         id="path248"
         style="fill:#ce4045;fill-opacity:1;fill-rule:nonzero;stroke:none"
         d="m 1246.26,3090.22 -1.93,0.57 c -1.65,1.07 -2.13,3.28 -1.07,4.93 0.18,0.28 4.46,6.8 13.41,10.81 1.79,0.8 3.91,0 4.71,-1.8 0.81,-1.81 0,-3.91 -1.8,-4.72 -6.92,-3.1 -10.28,-8.11 -10.31,-8.15 -0.69,-1.06 -1.83,-1.64 -3.01,-1.64" /><path
         id="path250"
         style="fill:#f3665c;fill-opacity:1;fill-rule:nonzero;stroke:none"
         d="m 1510.18,3132.48 c 0,0 23.2,30.94 40.46,5.35 17.27,-25.59 -7.13,-101.17 -49.39,-82.73 l 8.93,77.38" /><path
         id="path252"
         style="fill:#ce4045;fill-opacity:1;fill-rule:nonzero;stroke:none"
         d="m 1510.47,3078.46 c 1.57,0 3,1.04 3.44,2.61 6.55,23.33 30.72,32.8 30.97,32.89 1.84,0.7 2.77,2.76 2.07,4.6 -0.7,1.85 -2.76,2.77 -4.6,2.08 -1.13,-0.43 -27.77,-10.77 -35.31,-37.64 -0.54,-1.9 0.57,-3.87 2.47,-4.4 l 0.96,-0.14" /><path
         id="path254"
         style="fill:#ce4045;fill-opacity:1;fill-rule:nonzero;stroke:none"
         d="m 1534.88,3090.22 1.93,0.57 c 1.66,1.07 2.14,3.28 1.07,4.93 -0.18,0.28 -4.46,6.8 -13.41,10.81 -1.78,0.8 -3.91,0 -4.71,-1.8 -0.81,-1.81 0,-3.91 1.8,-4.72 6.92,-3.1 10.28,-8.11 10.31,-8.15 0.68,-1.06 1.84,-1.64 3.01,-1.64" /><path
         id="path256"
         style="fill:#f68a85;fill-opacity:1;fill-rule:nonzero;stroke:none"
         d="m 1447.71,2990.99 v -75.16 c 0,0 -22.42,-38.29 -52.73,-40.89 -30.29,-2.65 -57.2,32.96 -57.2,32.96 v 77.81 l 109.93,5.28" /><path
         id="path258"
         style="fill:#f3665c;fill-opacity:1;fill-rule:nonzero;stroke:none"
         d="m 1447.71,2990.99 v -33.35 c -20.34,-22.57 -56.47,-28.21 -109.93,-20.32 v 48.39 l 109.93,5.28" /><path
         id="path260"
         style="fill:#f68a85;fill-opacity:1;fill-rule:nonzero;stroke:none"
         d="m 1526.96,3184.04 c -1.39,-29.21 -4.18,-65.74 -9.75,-94.95 -1.39,-7.29 -2.97,-14.14 -4.71,-20.29 -15.83,-55.38 -55.39,-150.37 -166.16,-110.8 -48.92,17.46 -71.6,71.95 -81.71,127.38 -6.85,37.63 -7.89,75.66 -7.39,102.84 0.54,27.75 15.68,53.1 39.82,66.78 65.38,37.07 134.38,23.24 179.8,5.78 31.53,-12.1 51.7,-43.07 50.1,-76.74" /><path
         id="path262"
         style="fill:#2c375c;fill-opacity:1;fill-rule:nonzero;stroke:none"
         d="m 1349.79,3128.06 c 0,-8.02 -4.14,-14.52 -9.24,-14.52 -5.11,0 -9.24,6.5 -9.24,14.52 0,8.02 4.13,14.53 9.24,14.53 5.1,0 9.24,-6.51 9.24,-14.53" /><path
         id="path264"
         style="fill:#2c375c;fill-opacity:1;fill-rule:nonzero;stroke:none"
         d="m 1456.94,3128.06 c 0,-8.02 -4.13,-14.52 -9.23,-14.52 -5.1,0 -9.24,6.5 -9.24,14.52 0,8.02 4.14,14.53 9.24,14.53 5.1,0 9.23,-6.51 9.23,-14.53" /><path
         id="path266"
         style="fill:#2c375c;fill-opacity:1;fill-rule:nonzero;stroke:none"
         d="m 1472.82,3172.89 c 0,0 -29.14,11.52 -51.58,1.83 l 2.24,-12.48 c 0,0 32.94,2.78 49.53,-3.94 1.49,4.8 1.7,9.65 -0.19,14.59" /><path
         id="path268"
         style="fill:#2c375c;fill-opacity:1;fill-rule:nonzero;stroke:none"
         d="m 1303.01,3172.89 c 0,0 29.15,11.52 51.59,1.83 l -2.25,-12.48 c 0,0 -32.93,2.78 -49.52,-3.94 -1.49,4.8 -1.71,9.65 0.18,14.59" /><path
         id="path270"
         style="fill:#f3665c;fill-opacity:1;fill-rule:nonzero;stroke:none"
         d="m 1394.19,3065.07 c -5.98,-0.73 -12.19,0.87 -13.15,1.13 -1.91,0.52 -3.03,2.48 -2.51,4.39 0.51,1.9 2.48,3.02 4.38,2.5 3.36,-0.9 11.29,-2 14.38,0.4 0.6,0.47 1.38,1.33 1.34,3.51 -0.23,12.54 -8.69,53.62 -8.78,54.03 -0.4,1.93 0.85,3.81 2.78,4.21 1.94,0.41 3.82,-0.84 4.22,-2.77 0.35,-1.71 8.68,-42.14 8.93,-55.34 0.08,-4.96 -2.18,-7.78 -4.11,-9.28 -2.09,-1.63 -4.76,-2.45 -7.48,-2.78" /><path
         id="path272"
         style="fill:#ffffff;fill-opacity:1;fill-rule:nonzero;stroke:none"
         d="m 1345.37,3043.65 c 2.92,-14.69 12.62,-41.7 45.3,-41.7 32.76,0 41.94,24.69 45.1,41.7 h -90.4" /><path
         id="path274"
         style="fill:#f3665c;fill-opacity:1;fill-rule:nonzero;stroke:none"
         d="m 1387.93,2979.82 c 9.24,0 17.07,4.68 17.41,4.88 1.68,1.02 2.22,3.22 1.2,4.9 -1.02,1.69 -3.21,2.23 -4.9,1.21 -0.06,-0.04 -6.51,-3.85 -13.71,-3.85 -6.61,0 -12.93,3.79 -13,3.83 -1.67,1.03 -3.88,0.52 -4.91,-1.16 -1.04,-1.68 -0.52,-3.88 1.16,-4.91 0.32,-0.21 8.03,-4.9 16.75,-4.9" /><path
         id="path276"
         style="fill:#2c375c;fill-opacity:1;fill-rule:nonzero;stroke:none"
         d="M 1523.18,3131.84 H 1507 c 1.78,16.25 -4.12,35.88 -8.99,48.97 -11.06,29.66 12.47,42.75 -6.56,57.6 -19.03,14.9 -66.41,8.51 -99.36,9.58 -33.14,1.07 -86.43,0.6 -99.35,-2.39 -12.96,-2.97 -5.86,-24.49 -1.11,-41.17 4.79,-16.64 -15.89,-35.06 -19.35,-52.32 -1,-4.94 -0.79,-12.3 0,-20.27 h -13.49 c -1.6,21 -1.84,40.54 -1.55,56.38 0.54,27.75 15.68,53.1 39.82,66.78 65.38,37.07 134.38,23.24 179.8,5.78 31.53,-12.1 51.7,-43.07 50.1,-76.74 -0.76,-16 -1.95,-34.21 -3.78,-52.2" /><path
         id="path278"
         style="fill:#f03f33;fill-opacity:1;fill-rule:nonzero;stroke:none"
         d="m 608.461,2942.73 c -20.375,0 -36.953,-16.57 -36.953,-36.95 0,-20.38 16.578,-36.96 36.953,-36.96 20.379,0 36.953,16.58 36.953,36.96 0,20.38 -16.574,36.95 -36.953,36.95 z m 0,-90.8 c -29.691,0 -53.848,24.15 -53.848,53.85 0,29.69 24.157,53.84 53.848,53.84 29.687,0 53.844,-24.15 53.844,-53.84 0,-29.7 -24.157,-53.85 -53.844,-53.85" /><path
         id="path280"
         style="fill:#3566ba;fill-opacity:1;fill-rule:nonzero;stroke:none"
         d="m 505.105,3209.43 c -20.375,0 -36.953,-16.58 -36.953,-36.95 0,-20.38 16.578,-36.96 36.953,-36.96 20.379,0 36.958,16.58 36.958,36.96 0,20.37 -16.579,36.95 -36.958,36.95 z m 0,-90.8 c -29.683,0 -53.843,24.15 -53.843,53.85 0,29.69 24.16,53.84 53.843,53.84 29.696,0 53.848,-24.15 53.848,-53.84 0,-29.7 -24.152,-53.85 -53.848,-53.85" /><path
         id="path282"
         style="fill:#3566ba;fill-opacity:1;fill-rule:nonzero;stroke:none"
         d="m 649.75,2595.41 c -4.66,0 -8.441,3.77 -8.441,8.44 v 37.25 c 0,4.67 3.781,8.45 8.441,8.45 4.668,0 8.449,-3.78 8.449,-8.45 v -37.25 c 0,-4.67 -3.781,-8.44 -8.449,-8.44" /><path
         id="path284"
         style="fill:#3566ba;fill-opacity:1;fill-rule:nonzero;stroke:none"
         d="m 649.75,2530.22 c -4.66,0 -8.441,3.78 -8.441,8.45 v 37.24 c 0,4.67 3.781,8.45 8.441,8.45 4.668,0 8.449,-3.78 8.449,-8.45 v -37.24 c 0,-4.67 -3.781,-8.45 -8.449,-8.45" /><path
         id="path286"
         style="fill:#3566ba;fill-opacity:1;fill-rule:nonzero;stroke:none"
         d="m 702.035,2581.44 h -33.461 c -4.664,0 -8.441,3.78 -8.441,8.44 0,4.67 3.777,8.45 8.441,8.45 h 33.461 c 4.664,0 8.449,-3.78 8.449,-8.45 0,-4.66 -3.785,-8.44 -8.449,-8.44" /><path
         id="path288"
         style="fill:#3566ba;fill-opacity:1;fill-rule:nonzero;stroke:none"
         d="m 630.93,2581.44 h -33.457 c -4.664,0 -8.45,3.78 -8.45,8.44 0,4.67 3.786,8.45 8.45,8.45 h 33.457 c 4.668,0 8.445,-3.78 8.445,-8.45 0,-4.66 -3.777,-8.44 -8.445,-8.44" /><path
         id="path290"
         style="fill:#f03f33;fill-opacity:1;fill-rule:nonzero;stroke:none"
         d="m 328.563,2894.42 c -4.661,0 -8.446,3.79 -8.446,8.45 v 37.25 c 0,4.67 3.785,8.45 8.446,8.45 4.664,0 8.445,-3.78 8.445,-8.45 v -37.25 c 0,-4.66 -3.781,-8.45 -8.445,-8.45" /><path
         id="path292"
         style="fill:#f03f33;fill-opacity:1;fill-rule:nonzero;stroke:none"
         d="m 328.563,2829.24 c -4.661,0 -8.446,3.78 -8.446,8.45 v 37.25 c 0,4.66 3.785,8.44 8.446,8.44 4.664,0 8.445,-3.78 8.445,-8.44 v -37.25 c 0,-4.67 -3.781,-8.45 -8.445,-8.45" /><path
         id="path294"
         style="fill:#f03f33;fill-opacity:1;fill-rule:nonzero;stroke:none"
         d="m 380.844,2880.46 h -33.457 c -4.668,0 -8.446,3.78 -8.446,8.44 0,4.67 3.778,8.45 8.446,8.45 h 33.457 c 4.664,0 8.449,-3.78 8.449,-8.45 0,-4.66 -3.785,-8.44 -8.449,-8.44" /><path
         id="path296"
         style="fill:#f03f33;fill-opacity:1;fill-rule:nonzero;stroke:none"
         d="m 309.742,2880.46 h -33.465 c -4.66,0 -8.445,3.78 -8.445,8.44 0,4.67 3.785,8.45 8.445,8.45 h 33.465 c 4.66,0 8.442,-3.78 8.442,-8.45 0,-4.66 -3.782,-8.44 -8.442,-8.44" /><path
         id="path298"
         style="fill:#3566ba;fill-opacity:1;fill-rule:nonzero;stroke:none"
         d="m 4250.34,4318.57 c -20.37,0 -36.95,-16.58 -36.95,-36.95 0,-20.38 16.58,-36.96 36.95,-36.96 20.38,0 36.95,16.58 36.95,36.96 0,20.37 -16.57,36.95 -36.95,36.95 z m 0,-90.8 c -29.69,0 -53.85,24.16 -53.85,53.85 0,29.69 24.16,53.84 53.85,53.84 29.69,0 53.85,-24.15 53.85,-53.84 0,-29.69 -24.16,-53.85 -53.85,-53.85" /><path
         id="path300"
         style="fill:#3566ba;fill-opacity:1;fill-rule:nonzero;stroke:none"
         d="m 4343.02,4060.01 c -20.38,0 -36.96,-16.58 -36.96,-36.96 0,-20.37 16.58,-36.95 36.96,-36.95 20.37,0 36.95,16.58 36.95,36.95 0,20.38 -16.58,36.96 -36.95,36.96 z m 0,-90.8 c -29.69,0 -53.85,24.15 -53.85,53.84 0,29.7 24.16,53.85 53.85,53.85 29.69,0 53.85,-24.15 53.85,-53.85 0,-29.69 -24.16,-53.84 -53.85,-53.84" /><path
         id="path302"
         style="fill:#f03f33;fill-opacity:1;fill-rule:nonzero;stroke:none"
         d="m 4379.97,3767.06 c -4.67,0 -8.45,3.78 -8.45,8.45 v 37.25 c 0,4.66 3.78,8.44 8.45,8.44 4.67,0 8.45,-3.78 8.45,-8.44 v -37.25 c 0,-4.67 -3.78,-8.45 -8.45,-8.45" /><path
         id="path304"
         style="fill:#f03f33;fill-opacity:1;fill-rule:nonzero;stroke:none"
         d="m 4379.97,3701.87 c -4.67,0 -8.45,3.79 -8.45,8.45 v 37.25 c 0,4.67 3.78,8.45 8.45,8.45 4.67,0 8.45,-3.78 8.45,-8.45 v -37.25 c 0,-4.66 -3.78,-8.45 -8.45,-8.45" /><path
         id="path306"
         style="fill:#f03f33;fill-opacity:1;fill-rule:nonzero;stroke:none"
         d="m 4432.26,3753.09 h -33.47 c -4.66,0 -8.44,3.78 -8.44,8.45 0,4.67 3.78,8.45 8.44,8.45 h 33.47 c 4.65,0 8.44,-3.78 8.44,-8.45 0,-4.67 -3.79,-8.45 -8.44,-8.45" /><path
         id="path308"
         style="fill:#f03f33;fill-opacity:1;fill-rule:nonzero;stroke:none"
         d="m 4361.14,3753.09 h -33.45 c -4.67,0 -8.45,3.78 -8.45,8.45 0,4.67 3.78,8.45 8.45,8.45 h 33.45 c 4.67,0 8.45,-3.78 8.45,-8.45 0,-4.67 -3.78,-8.45 -8.45,-8.45" /><path
         id="path310"
         style="fill:#f03f33;fill-opacity:1;fill-rule:nonzero;stroke:none"
         d="m 4058.78,4066.09 c -4.67,0 -8.45,3.77 -8.45,8.44 v 37.25 c 0,4.66 3.78,8.45 8.45,8.45 4.67,0 8.45,-3.79 8.45,-8.45 v -37.25 c 0,-4.67 -3.78,-8.44 -8.45,-8.44" /><path
         id="path312"
         style="fill:#f03f33;fill-opacity:1;fill-rule:nonzero;stroke:none"
         d="m 4058.78,4000.9 c -4.67,0 -8.45,3.78 -8.45,8.45 v 37.24 c 0,4.66 3.78,8.45 8.45,8.45 4.67,0 8.45,-3.79 8.45,-8.45 v -37.24 c 0,-4.67 -3.78,-8.45 -8.45,-8.45" /><path
         id="path314"
         style="fill:#f03f33;fill-opacity:1;fill-rule:nonzero;stroke:none"
         d="m 4111.06,4052.11 h -33.46 c -4.66,0 -8.44,3.78 -8.44,8.45 0,4.67 3.78,8.44 8.44,8.44 h 33.46 c 4.66,0 8.45,-3.77 8.45,-8.44 0,-4.67 -3.79,-8.45 -8.45,-8.45" /><path
         id="path316"
         style="fill:#f03f33;fill-opacity:1;fill-rule:nonzero;stroke:none"
         d="m 4039.95,4052.11 h -33.46 c -4.65,0 -8.44,3.78 -8.44,8.45 0,4.67 3.79,8.44 8.44,8.44 h 33.46 c 4.67,0 8.45,-3.77 8.45,-8.44 0,-4.67 -3.78,-8.45 -8.45,-8.45" /><path
         id="path318"
         style="fill:#f03f33;fill-opacity:1;fill-rule:nonzero;stroke:none"
         d="m 4530.2,675.5 h -237.55 c -32.31,0 -60.94,24.711 -70.92,61.219 l -100.74,368.411 c -4.12,15.07 4.72,30.73 18.01,31.96 183.43,16.89 365.06,16.9 544.89,0.04 13.28,-1.24 22.11,-16.9 17.99,-31.95 L 4601.12,736.719 C 4591.14,700.211 4562.51,675.5 4530.2,675.5" /><path
         id="path320"
         style="fill:#2c375c;fill-opacity:1;fill-rule:nonzero;stroke:none"
         d="m 4680.77,1110.34 c 0,-9.79 -119.86,-17.74 -267.72,-17.74 -147.86,0 -267.74,7.95 -267.74,17.74 0,9.8 119.88,17.75 267.74,17.75 147.86,0 267.72,-7.95 267.72,-17.75" /><path
         id="path322"
         style="fill:#3566ba;fill-opacity:1;fill-rule:nonzero;stroke:none"
         d="m 4716.26,1608.24 c -96.35,25.38 -243.55,-174.6 -288.26,-369.57 v 284.07 c 22.47,39.86 65.32,99.82 143.11,163.18 120.98,98.52 232.35,224.97 135.82,250.39 -90.45,23.83 -225.72,-150.98 -278.93,-333.79 v 364.8 c 15.58,24.2 41.12,55.95 81.94,89.19 76.24,62.09 146.43,141.79 85.6,157.81 -52.79,13.9 -129.81,-79.54 -167.54,-184.94 v 118.25 c 6.24,36.57 15.06,88.81 39.26,142.21 56.07,123.74 86.36,251.24 12.43,241.76 -74.01,-9.5 -121.98,-229.88 -81.52,-399.08 v -60.84 c -27.34,123.82 -121.13,252.05 -182.34,235.92 -60.83,-16.02 9.36,-95.72 85.61,-157.81 58.03,-47.26 85.19,-91.51 96.73,-115.31 v -287.37 c -43.84,195.95 -192.1,398.2 -288.95,372.68 -96.52,-25.42 14.84,-151.86 135.82,-250.39 91.42,-74.46 134.59,-144.22 153.13,-182.17 v -344.61 c -46.86,192.36 -191.32,386.5 -286.33,361.47 -96.52,-25.42 -13.74,-117.83 122.21,-229.59 92.4,-75.96 141.89,-156.12 164.12,-199.7 v -162.32 c 10.79,-3.02 20.88,-3.01 29.83,0 v 64.59 c 18.91,38.25 62.13,107.23 152.44,180.77 120.98,98.54 232.33,224.98 135.82,250.4" /><path
         id="path324"
         style="fill:#f68a85;fill-opacity:1;fill-rule:nonzero;stroke:none"
         d="m 3571.45,835.031 v -71.883 l 65.74,1.063 4.28,76.16 -70.02,-5.34" /><path
         id="path326"
         style="fill:#f03f33;fill-opacity:1;fill-rule:nonzero;stroke:none"
         d="m 3582.91,769.82 c 0,0 -16.49,21.641 -29.39,20.571 -12.89,-1.082 -111.54,-81.371 -145.57,-88.289 -34.03,-6.922 -27.12,-31.961 -20.72,-44.731 6.39,-12.762 270.12,3.379 270.12,3.379 0,0 8.28,83.781 -0.68,107.879 -8.96,24.09 -47.02,-4.231 -73.76,1.191" /><path
         id="path328"
         style="fill:#ffffff;fill-opacity:1;fill-rule:nonzero;stroke:none"
         d="m 3528.52,713.969 c 1.21,-0.348 2.55,-0.219 3.73,0.461 2.27,1.34 3.04,4.261 1.71,6.539 -0.44,0.773 -11.07,18.742 -25.17,25.64 -18.75,9.211 -33.18,-1.5 -33.79,-1.961 -2.1,-1.597 -2.5,-4.597 -0.91,-6.699 1.6,-2.097 4.6,-2.508 6.7,-0.91 0.39,0.293 10.44,7.52 23.8,0.992 11.48,-5.633 21.03,-21.722 21.12,-21.89 0.65,-1.102 1.67,-1.84 2.81,-2.172" /><path
         id="path330"
         style="fill:#ffffff;fill-opacity:1;fill-rule:nonzero;stroke:none"
         d="m 3542.61,727.59 c 1.2,-0.348 2.55,-0.231 3.72,0.469 2.28,1.32 3.05,4.25 1.72,6.531 -0.45,0.762 -11.07,18.73 -25.17,25.629 -18.78,9.222 -33.18,-1.489 -33.79,-1.957 -2.1,-1.59 -2.51,-4.59 -0.91,-6.692 1.6,-2.101 4.59,-2.511 6.69,-0.91 0.4,0.289 10.45,7.52 23.8,0.988 11.54,-5.648 21.03,-21.718 21.12,-21.878 0.65,-1.11 1.67,-1.86 2.82,-2.18" /><path
         id="path332"
         style="fill:#ffffff;fill-opacity:1;fill-rule:nonzero;stroke:none"
         d="m 3509.34,702.832 c 1.21,-0.352 2.55,-0.223 3.73,0.469 2.28,1.328 3.04,4.258 1.72,6.531 -0.45,0.77 -11.08,18.727 -25.17,25.637 -18.78,9.222 -33.18,-1.5 -33.79,-1.949 -2.1,-1.61 -2.51,-4.598 -0.92,-6.7 1.6,-2.101 4.6,-2.511 6.7,-0.91 0.4,0.289 10.45,7.52 23.8,0.981 11.54,-5.653 21.03,-21.711 21.12,-21.879 0.65,-1.102 1.67,-1.864 2.81,-2.18" /><path
         id="path334"
         style="fill:#3566ba;fill-opacity:1;fill-rule:nonzero;stroke:none"
         d="m 3513.47,2038.87 c 6.21,-219.36 27.65,-965.1 39.24,-1204.929 h 104.79 c 0,0 1.02,288.669 20.69,479.169 11.71,113.38 36.75,518.01 49.27,725.76 h -213.99" /><path
         id="path336"
         style="fill:#3550aa;fill-opacity:1;fill-rule:nonzero;stroke:none"
         d="m 3682.77,2038.87 c -9.69,-195.72 -24.98,-483.44 -36.6,-603.25 -12.01,-123.77 -23.6,-465.179 -27.92,-601.679 h 13.67 c 4.32,136.688 15.92,477.089 27.85,600.379 11.64,120.17 26.98,408.71 36.69,604.55 h -13.69" /><path
         id="path338"
         style="fill:#3550aa;fill-opacity:1;fill-rule:nonzero;stroke:none"
         d="m 3541.13,871.781 4.73,-47.972 h 125.69 l 3.78,47.972 h -134.2" /><path
         id="path340"
         style="fill:#f68a85;fill-opacity:1;fill-rule:nonzero;stroke:none"
         d="m 3798.04,839.422 2.67,-71.82 65.66,3.5 1.44,76.277 -69.77,-7.957" /><path
         id="path342"
         style="fill:#f03f33;fill-opacity:1;fill-rule:nonzero;stroke:none"
         d="m 3830.31,786.98 c 0,0 35.02,7.7 44.58,7.079 9.56,-0.618 70.48,-75.157 91.89,-80.348 38.81,-9.402 36.13,-70.539 12.17,-72.512 -69.3,-5.707 -185.88,28.653 -185.88,28.653 0,0 -7.37,78.929 -1.55,103.328 5.81,24.41 19.21,7.429 38.79,13.8" /><path
         id="path344"
         style="fill:#ffffff;fill-opacity:1;fill-rule:nonzero;stroke:none"
         d="m 3884.38,717.48 c -1.25,-0.21 -2.56,0.059 -3.66,0.872 -2.13,1.558 -2.58,4.546 -1,6.668 0.51,0.71 12.99,17.449 27.75,22.812 19.63,7.156 32.83,-5.031 33.39,-5.551 1.91,-1.812 2,-4.84 0.18,-6.75 -1.8,-1.929 -4.83,-2 -6.74,-0.191 -0.36,0.32 -9.58,8.59 -23.57,3.512 -12.02,-4.372 -23.22,-19.36 -23.33,-19.5 -0.76,-1.032 -1.85,-1.661 -3.02,-1.872" /><path
         id="path346"
         style="fill:#ffffff;fill-opacity:1;fill-rule:nonzero;stroke:none"
         d="m 3871.83,732.52 c -1.24,-0.219 -2.57,0.062 -3.67,0.871 -2.12,1.558 -2.56,4.55 -1,6.679 0.53,0.7 13,17.442 27.75,22.801 19.65,7.16 32.83,-5.019 33.39,-5.551 1.92,-1.808 2,-4.832 0.2,-6.75 -1.82,-1.922 -4.85,-2.011 -6.76,-0.191 -0.36,0.332 -9.58,8.582 -23.56,3.523 -12.08,-4.402 -23.22,-19.363 -23.34,-19.523 -0.76,-1.02 -1.85,-1.66 -3.01,-1.859" /><path
         id="path348"
         style="fill:#ffffff;fill-opacity:1;fill-rule:nonzero;stroke:none"
         d="m 3902.26,704.371 c -1.24,-0.223 -2.56,0.039 -3.66,0.848 -2.13,1.582 -2.57,4.57 -1,6.679 0.52,0.723 13,17.461 27.75,22.821 19.65,7.152 32.83,-5.028 33.39,-5.559 1.91,-1.808 2,-4.828 0.19,-6.75 -1.81,-1.91 -4.84,-2 -6.75,-0.191 -0.36,0.332 -9.59,8.59 -23.57,3.511 -12.07,-4.378 -23.22,-19.339 -23.33,-19.5 -0.76,-1.019 -1.85,-1.671 -3.02,-1.859" /><path
         id="path350"
         style="fill:#3566ba;fill-opacity:1;fill-rule:nonzero;stroke:none"
         d="m 3713.87,2038.87 c 12.52,-207.75 37.56,-612.38 49.26,-725.76 19.68,-190.5 20.7,-479.169 20.7,-479.169 h 104.78 c 11.59,239.829 33.04,985.569 39.25,1204.929 h -213.99" /><path
         id="path352"
         style="fill:#3550aa;fill-opacity:1;fill-rule:nonzero;stroke:none"
         d="m 3758.54,2038.87 h -13.68 c 9.71,-195.84 25.06,-484.38 36.7,-604.55 11.93,-123.29 23.53,-463.691 27.84,-600.379 h 13.68 c -4.32,136.5 -15.92,477.909 -27.92,601.679 -11.62,119.81 -26.91,407.53 -36.62,603.25" /><path
         id="path354"
         style="fill:#3550aa;fill-opacity:1;fill-rule:nonzero;stroke:none"
         d="m 3900.2,871.781 -4.73,-47.972 h -125.69 l -3.78,47.972 h 134.2" /><path
         id="path356"
         style="fill:#cd2e37;fill-opacity:1;fill-rule:nonzero;stroke:none"
         d="m 3596.12,2584.68 c -65.03,-95.45 -240.82,-178.71 -240.82,-178.71 -64.63,13.71 -105.59,33.12 -146.27,55.52 12.05,28.86 17.28,58.16 23.97,96.24 60.04,-16.71 111.88,-25.63 111.88,-25.63 126.74,58.74 275.54,355.01 275.54,355.01 41.04,-84.43 -24.3,-302.43 -24.3,-302.43" /><path
         id="path358"
         style="fill:#2c375c;fill-opacity:1;fill-rule:nonzero;stroke:none"
         d="m 3995.79,2740.02 c -52.68,-46.79 -114.46,-25.81 -193.12,14.19 -78.7,39.99 -28.26,-38.67 -105.46,-52.06 -77.2,-13.4 -68.16,177.69 -73.4,273.15 -3.28,59.87 -27.02,135.2 -27.02,165.49 v 0.41 c -0.41,5.03 -0.63,10.05 -0.67,15 -0.59,72.66 44.2,205.37 201.77,184.28 0,0 130.74,-14.92 145.63,-142.69 0,0 6.2,-58.94 10.32,-101.63 11.67,-120.86 56.24,-57.86 41.95,-205.16 -4.72,-48.72 61.62,-96.27 0,-150.98" /><path
         id="path360"
         style="fill:#f03f33;fill-opacity:1;fill-rule:nonzero;stroke:none"
         d="m 3514.57,2017.25 c 128.57,-94.78 426.06,-5 426.06,-5 33.48,40.92 -13,134.46 -26.66,243.96 -11.49,92.2 1.75,217.25 18.75,309.74 3.17,17.3 6.48,33.49 9.79,48.11 20.91,92.61 23,247.27 23,247.27 -16.15,8.3 -42.16,19.43 -68.54,30.14 -16.4,6.66 -32.97,13.17 -47.4,18.79 -25.63,9.97 -44.72,17.04 -44.72,17.04 l -106.08,-16.26 -20.91,-6.4 -34.49,-10.53 -22.95,-6.99 c 0,0 -16.3,-104.74 -31.82,-168.33 -4.27,-17.41 -8.48,-31.77 -12.27,-40.03 -17.72,-38.43 -13.32,-57.04 5.28,-107.9 4.39,-12.05 7.3,-24.85 8.82,-38.77 0.41,-3.46 0.7,-6.99 0.93,-10.6 2.71,-42.97 -5.73,-96.29 -19.68,-168.47 -16.3,-84.21 -56.07,-246.69 -69.73,-301.91 -3.17,-12.83 1.99,-26.02 12.62,-33.86" /><path
         id="path362"
         style="fill:#cd2e37;fill-opacity:1;fill-rule:nonzero;stroke:none"
         d="m 3590.43,2532.09 c 0.41,-3.46 0.7,-6.99 0.93,-10.6 52.79,-44.68 143.8,-105.67 247.6,-105.67 2.06,0 3.73,1.68 3.73,3.72 0,2.05 -1.67,3.72 -3.73,3.72 -105.47,0 -197.71,64.56 -248.53,108.83" /><path
         id="path364"
         style="fill:#cd2e37;fill-opacity:1;fill-rule:nonzero;stroke:none"
         d="m 3697.21,2702.15 c 52.74,0 101.39,56.05 103.5,58.51 1.34,1.56 1.16,3.91 -0.41,5.25 -1.55,1.34 -3.9,1.16 -5.24,-0.4 -0.51,-0.6 -51.47,-59.3 -102.39,-55.76 -2.04,0.14 -3.83,-1.41 -3.97,-3.46 -0.15,-2.05 1.4,-3.82 3.45,-3.97 1.69,-0.12 3.38,-0.17 5.06,-0.17" /><path
         id="path366"
         style="fill:#cd2e37;fill-opacity:1;fill-rule:nonzero;stroke:none"
         d="m 3820.48,2168.67 c 1.85,0 3.47,1.4 3.68,3.29 0.24,2.04 -1.22,3.89 -3.27,4.12 -136.22,15.69 -192.66,251.49 -193.2,253.87 -0.47,2 -2.48,3.24 -4.48,2.78 -2,-0.46 -3.24,-2.47 -2.78,-4.47 2.31,-9.92 58.22,-243.29 199.61,-259.57 l 0.44,-0.02" /><path
         id="path368"
         style="fill:#cd2e37;fill-opacity:1;fill-rule:nonzero;stroke:none"
         d="m 3766.23,2240.02 c 1.24,0 2.46,0.63 3.16,1.77 1.09,1.75 0.54,4.04 -1.21,5.12 -72.46,44.67 -83.23,110.52 -83.33,111.18 -0.31,2.03 -2.18,3.44 -4.23,3.12 -2.03,-0.3 -3.43,-2.2 -3.12,-4.23 0.42,-2.83 11.24,-69.83 86.78,-116.4 l 1.95,-0.56" /><path
         id="path370"
         style="fill:#f3665c;fill-opacity:1;fill-rule:nonzero;stroke:none"
         d="m 3650.3,3132.41 c 0,0 -22.51,28.51 -39.25,4.93 -16.73,-23.58 6.93,-93.22 47.91,-76.22 l -8.66,71.29" /><path
         id="path372"
         style="fill:#ffffff;fill-opacity:1;fill-rule:nonzero;stroke:none"
         d="m 3640.62,3065.96 c 0,-4.13 -3.35,-7.48 -7.49,-7.48 -4.14,0 -7.49,3.35 -7.49,7.48 0,4.14 3.35,7.49 7.49,7.49 4.14,0 7.49,-3.35 7.49,-7.49" /><path
         id="path374"
         style="fill:#ce4045;fill-opacity:1;fill-rule:nonzero;stroke:none"
         d="m 3650.01,3082.64 c -1.51,0 -2.9,0.95 -3.33,2.4 -6.36,21.5 -29.8,30.22 -30.03,30.31 -1.79,0.65 -2.69,2.54 -2.01,4.24 0.67,1.7 2.67,2.55 4.46,1.91 1.1,-0.39 26.93,-9.92 34.24,-34.68 0.52,-1.75 -0.56,-3.56 -2.39,-4.06 l -0.94,-0.12" /><path
         id="path376"
         style="fill:#ce4045;fill-opacity:1;fill-rule:nonzero;stroke:none"
         d="m 3626.35,3093.47 -1.88,0.52 c -1.61,0.99 -2.07,3.03 -1.03,4.55 0.16,0.26 4.31,6.27 13,9.96 1.72,0.74 3.78,0 4.57,-1.66 0.78,-1.66 0,-3.6 -1.75,-4.34 -6.71,-2.86 -9.97,-7.48 -10,-7.52 -0.67,-0.98 -1.78,-1.51 -2.91,-1.51" /><path
         id="path378"
         style="fill:#f68a85;fill-opacity:1;fill-rule:nonzero;stroke:none"
         d="m 3823.8,2986.72 v -76.81 c 0,0 -39.71,-39.26 -70.68,-41.92 -30.95,-2.7 -41.66,33.82 -41.66,33.82 v 79.51 l 112.34,5.4" /><path
         id="path380"
         style="fill:#f3665c;fill-opacity:1;fill-rule:nonzero;stroke:none"
         d="m 3823.8,2978.35 v -34.08 c -20.78,-23.07 -57.69,-31.24 -112.32,-23.18 l -0.02,51.86 112.34,5.4" /><path
         id="path382"
         style="fill:#f68a85;fill-opacity:1;fill-rule:nonzero;stroke:none"
         d="m 3636.77,3099.93 c 0.99,-8.25 2.16,-16.64 3.64,-25 9.8,-55.56 44.95,-115.57 89.33,-125.64 95.81,-21.75 135.6,53.51 150.91,109.03 1.7,6.17 -1.47,13.23 -0.13,20.53 3.17,17.3 10.16,36.96 11.75,56.34 1.09,13.43 1.87,26.68 2.44,38.65 1.55,33.77 -18,64.79 -48.57,76.91 -44.05,17.52 -110.93,31.39 -174.28,-5.76 -23.4,-13.73 -38.09,-39.14 -38.62,-66.95 -0.39,-21.24 0.14,-49.02 3.53,-78.11" /><path
         id="path384"
         style="fill:#f3665c;fill-opacity:1;fill-rule:nonzero;stroke:none"
         d="m 3753.7,3056.94 c 1.78,0 3.36,1.28 3.66,3.1 0.35,2.03 -1.02,3.95 -3.05,4.29 l -12.79,2.15 17.62,46.89 c 0.72,1.93 -0.25,4.08 -2.18,4.79 -1.92,0.72 -4.07,-0.24 -4.79,-2.17 l -20.78,-55.36 21.69,-3.64 0.62,-0.05" /><path
         id="path386"
         style="fill:#2c375c;fill-opacity:1;fill-rule:nonzero;stroke:none"
         d="m 3673.67,3193.52 c -37.46,-17.08 -25.56,-61.58 -38.21,-83.91 -0.82,-1.45 -1.67,-1.7 -2.57,-0.96 -3.57,29.65 -4.13,57.97 -3.72,79.62 0.56,28.35 16.04,54.24 40.7,68.24 66.79,37.87 137.3,23.73 183.73,5.88 32.22,-12.36 52.84,-43.98 51.19,-78.4 -0.59,-12.2 -1.41,-25.71 -2.56,-39.4 -6.22,-3.7 -21.4,-5.39 -22.03,-15.38 -1.69,-26.43 -2.98,-44.51 -8.5,-42.94 -9.31,2.69 -15.09,34.7 -4.44,55.38 0,0 -8.56,13.94 -43.46,27.38 -44.76,17.25 -87.84,42.79 -87.84,42.79 0,0 -17,10.24 -23.52,21.4 0,0 -10.24,-26.69 -38.77,-39.7" /><path
         id="path388"
         style="fill:#2c375c;fill-opacity:1;fill-rule:nonzero;stroke:none"
         d="m 3710.11,3118.99 c 0,-8.2 -4.23,-14.84 -9.45,-14.84 -5.21,0 -9.43,6.64 -9.43,14.84 0,8.2 4.22,14.85 9.43,14.85 5.22,0 9.45,-6.65 9.45,-14.85" /><path
         id="path390"
         style="fill:#2c375c;fill-opacity:1;fill-rule:nonzero;stroke:none"
         d="m 3812.11,3118.99 c 0,-8.2 -4.23,-14.84 -9.44,-14.84 -5.21,0 -9.44,6.64 -9.44,14.84 0,8.2 4.23,14.85 9.44,14.85 5.21,0 9.44,-6.65 9.44,-14.85" /><path
         id="path392"
         style="fill:#2c375c;fill-opacity:1;fill-rule:nonzero;stroke:none"
         d="m 3675.24,3157.93 c 7.59,1.48 22.94,3.92 39.28,3.34 4.31,-0.15 7.76,-3.39 7.16,-6.81 l -0.02,-0.09 c -0.47,-2.73 -3.4,-4.57 -6.84,-4.31 -11.14,0.84 -40.27,0.66 -53.83,-3.38 -0.38,1.96 0.93,4.05 2.85,5.87 2.9,2.77 6.98,4.52 11.4,5.38" /><path
         id="path394"
         style="fill:#2c375c;fill-opacity:1;fill-rule:nonzero;stroke:none"
         d="m 3826.99,3156.14 c -7.58,1.58 -22.88,4.24 -39.23,3.88 -4.3,-0.09 -7.79,-3.28 -7.24,-6.71 l 0.01,-0.09 c 0.44,-2.74 3.34,-4.62 6.77,-4.4 11.16,0.68 40.29,0.11 53.79,-4.12 0.4,1.96 -0.88,4.06 -2.77,5.92 -2.86,2.8 -6.91,4.6 -11.33,5.52" /><path
         id="path396"
         style="fill:#ffffff;fill-opacity:1;fill-rule:nonzero;stroke:none"
         d="m 3712.44,3034.78 c 2.76,-13.05 11.93,-37.05 42.81,-37.05 30.97,0 39.65,21.94 42.63,37.05 h -85.44" /><path
         id="path398"
         style="fill:#f3665c;fill-opacity:1;fill-rule:nonzero;stroke:none"
         d="m 3754.8,2975.3 c -8.9,0 -16.77,4.8 -17.1,5.01 -1.72,1.06 -2.25,3.3 -1.19,5.02 1.06,1.71 3.29,2.24 5.01,1.19 0.07,-0.04 6.49,-3.92 13.28,-3.92 7.37,0 13.96,3.89 14.03,3.93 1.73,1.04 3.96,0.48 5,-1.24 1.03,-1.73 0.49,-3.96 -1.23,-5 -0.33,-0.21 -8.34,-4.99 -17.8,-4.99" /><path
         id="path400"
         style="fill:#f68a85;fill-opacity:1;fill-rule:nonzero;stroke:none"
         d="m 3881.09,3132.64 c 0,0 26.18,31.76 41.62,8.86 15.44,-22.9 -6.39,-90.53 -44.2,-74.02 l 2.58,65.16" /><path
         id="path402"
         style="fill:#ffffff;fill-opacity:1;fill-rule:nonzero;stroke:none"
         d="m 3902.28,3065.96 c 0,-4.13 -3.35,-7.48 -7.49,-7.48 -4.14,0 -7.49,3.35 -7.49,7.48 0,4.14 3.35,7.49 7.49,7.49 4.14,0 7.49,-3.35 7.49,-7.49" /><path
         id="path404"
         style="fill:#f3665c;fill-opacity:1;fill-rule:nonzero;stroke:none"
         d="m 3886.77,3088.38 c 1.39,0 2.67,0.92 3.07,2.33 5.86,20.88 27.49,29.35 27.71,29.43 1.64,0.63 2.48,2.47 1.84,4.12 -0.61,1.65 -2.46,2.48 -4.11,1.85 -1,-0.38 -24.84,-9.63 -31.59,-33.67 -0.48,-1.7 0.51,-3.47 2.21,-3.94 l 0.87,-0.12" /><path
         id="path406"
         style="fill:#f3665c;fill-opacity:1;fill-rule:nonzero;stroke:none"
         d="m 3908.6,3098.9 1.72,0.5 c 1.49,0.96 1.92,2.94 0.96,4.42 -0.16,0.25 -3.99,6.09 -11.99,9.67 -1.6,0.72 -3.5,0 -4.22,-1.61 -0.72,-1.61 0,-3.5 1.61,-4.22 6.19,-2.77 9.2,-7.25 9.23,-7.3 0.61,-0.95 1.64,-1.46 2.69,-1.46" /><path
         id="path408"
         style="fill:#3566ba;fill-opacity:1;fill-rule:nonzero;stroke:none"
         d="m 3353.72,2428.12 -91.95,-70.53 c -11.62,-8.91 -28.27,-6.71 -37.18,4.92 l -178.65,232.91 -73.89,96.31 134.02,102.83 43.77,-57.06 208.77,-272.2 c 8.93,-11.6 6.74,-28.25 -4.89,-37.18" /><path
         id="path410"
         style="fill:#3550aa;fill-opacity:1;fill-rule:nonzero;stroke:none"
         d="m 3149.84,2737.5 c -18.62,-43.88 -50.63,-99.02 -103.9,-142.08 l -73.89,96.31 134.02,102.83 43.77,-57.06" /><path
         id="path412"
         style="fill:#2c375c;fill-opacity:1;fill-rule:nonzero;stroke:none"
         d="m 3629,1982.56 -8.25,-6.33 c -20.7,-15.88 -50.35,-11.96 -66.22,8.73 l -288.39,375.99 83.21,63.83 288.38,-376 c 15.88,-20.69 11.97,-50.34 -8.73,-66.22" /><path
         id="path414"
         style="fill:#2c375c;fill-opacity:1;fill-rule:nonzero;stroke:none"
         d="m 3025,2764.85 c -175.3,-135.88 -428.46,-103.8 -564.33,71.48 -135.88,175.3 -103.83,428.47 71.47,564.35 175.3,135.88 428.46,103.8 564.34,-71.5 135.87,-175.28 103.82,-428.44 -71.48,-564.33 m -537.49,693.41 c -207.39,-160.75 -245.17,-459.18 -84.42,-666.57 160.74,-207.36 459.17,-245.18 666.55,-84.42 207.38,160.75 245.16,459.18 84.42,666.54 -160.75,207.39 -459.17,245.2 -666.55,84.45" /><path
         id="path416"
         style="fill:#ffffff;fill-opacity:1;fill-rule:nonzero;stroke:none"
         d="m 2578.64,2733.97 c -7.61,4.37 -15.08,8.98 -22.39,13.83 l 20.74,35.86 h 76.1 l -74.45,-49.69 m 208.85,139.39 h -158.63 l 121.47,210.07 h 163.94 l -118.12,-204.29 -8.66,-5.78 m 243.53,162.55 27.48,47.52 h 43.72 l -71.2,-47.52 m 6.56,260.77 h -163.93 l 84.34,145.86 c -16.47,8.23 -33.51,15.35 -51.01,21.28 v 0 c 17.5,-5.93 34.54,-13.05 51.01,-21.28 42.75,-21.32 81.66,-50.2 114.57,-85.36 10.7,-11.42 20.77,-23.52 30.14,-36.23 v 0 c -9.37,12.71 -19.44,24.81 -30.14,36.23 l -34.98,-60.5" /><path
         id="path418"
         style="fill:#def0f1;fill-opacity:1;fill-rule:nonzero;stroke:none"
         d="m 3102.22,3083.43 h -43.72 l 90.41,156.36 c -6.2,14.63 -13.19,28.74 -20.93,42.3 v 0 c 7.74,-13.56 14.73,-27.67 20.93,-42.3 7.22,-17.06 13.35,-34.81 18.26,-53.19 0.19,-0.7 0.37,-1.41 0.56,-2.12 3.59,-13.83 6.43,-27.78 8.52,-41.82 v -9.82 l -74.03,-49.41 m -187.95,0 h -163.94 l 123.32,213.25 h 163.93 l -123.31,-213.25" /><path
         id="path420"
         style="fill:#71ade0;fill-opacity:1;fill-rule:nonzero;stroke:none"
         d="m 3176.25,3132.84 v 9.82 c 0.45,-2.99 0.86,-6 1.24,-8.99 l -1.24,-0.83" /><path
         id="path422"
         style="fill:#def0f1;fill-opacity:1;fill-rule:nonzero;stroke:none"
         d="m 2653.09,2783.66 h -76.1 l 51.87,89.7 h 158.63 l -134.4,-89.7" /><path
         id="path424"
         style="fill:#ffffff;fill-opacity:1;fill-rule:nonzero;stroke:none"
         d="m 2827.29,2683.58 57.87,100.08 h 162.29 c -7.52,-6.79 -15.33,-13.31 -23.4,-19.55 -21.84,-16.82 -44.88,-31.05 -68.75,-42.73 -22.24,-10.87 -45.81,-19.82 -70.54,-26.59 -18.95,-5.16 -38.15,-8.89 -57.47,-11.21 m -139.84,7.58 c -11.99,2.78 -23.87,6.11 -35.59,9.98 -25.48,8.5 -50.01,19.52 -73.22,32.83 l 74.45,49.69 h 87.85 l -53.49,-92.5 m 434.33,182.2 h -184.75 l 93.99,162.55 71.2,47.52 h 78.43 c 0.02,-43.35 -6.91,-86.53 -20.58,-127.76 -9.65,-28.83 -22.52,-56.44 -38.29,-82.31 m -328.98,0 h -5.31 l 8.66,5.78 -3.35,-5.78" /><path
         id="path426"
         style="fill:#e8f2f4;fill-opacity:1;fill-rule:nonzero;stroke:none"
         d="m 3176.25,3083.43 h -74.03 l 74.03,49.41 v -49.41" /><path
         id="path428"
         style="fill:#97c2e8;fill-opacity:1;fill-rule:nonzero;stroke:none"
         d="m 3180.65,3083.43 h -4.4 v 49.41 l 1.24,0.83 c 2.1,-16.7 3.15,-33.48 3.16,-50.24" /><path
         id="path430"
         style="fill:#e8f2f4;fill-opacity:1;fill-rule:nonzero;stroke:none"
         d="m 3047.45,2783.66 h -162.29 l 51.87,89.7 h 184.75 c -20.22,-33.16 -45.22,-63.44 -74.33,-89.7 m -306.51,0 h -87.85 l 134.4,89.7 h 5.31 l -51.86,-89.7" /><path
         id="path432"
         style="fill:#ffffff;fill-opacity:1;fill-rule:nonzero;stroke:none"
         d="m 2410.72,2919.97 v 0 c -8.31,18.78 -15.27,38.47 -20.73,58.93 -0.17,0.6 -0.32,1.19 -0.48,1.79 -0.19,0.74 -0.38,1.47 -0.57,2.21 15.02,5.3 24.9,16.43 25.16,24.24 0.3,8.5 -9.61,13.37 -9.61,13.37 0,0 7.34,6.15 6.96,15.13 -0.4,8.98 -15.84,17.68 -15.84,17.68 0,0 7.41,9.19 0.96,18.3 -2.2,3.1 -6.26,4.13 -10.67,4.13 -3.12,0 -6.41,-0.51 -9.33,-1.17 -0.02,0.97 -0.03,1.95 -0.04,2.92 2.68,1.71 5.8,3.72 9.15,5.93 h 119.56 l -94.52,-163.46 m 217.83,376.71 h -190.39 c 25.17,40.09 57.37,75.82 95.43,105.12 21.4,16.43 43.93,30.37 67.27,41.87 22.69,11.16 46.77,20.33 72.05,27.21 20.81,5.63 41.95,9.55 63.17,11.77 l -107.53,-185.97" /><path
         id="path434"
         style="fill:#def0f1;fill-opacity:1;fill-rule:nonzero;stroke:none"
         d="m 2505.24,3083.43 h -119.56 c 19.87,13.12 47.6,33.11 37.04,36.19 -0.96,0.28 -2.12,0.41 -3.45,0.41 -8.99,0 -25.75,-6.05 -42.02,-12.92 2.1,34.23 8.54,68.17 19.2,100.88 10.28,31.19 24.31,60.98 41.71,88.69 h 190.39 l -123.31,-213.25" /><path
         id="path436"
         style="fill:#fac0b8;fill-opacity:1;fill-rule:nonzero;stroke:none"
         d="m 2388.94,2982.9 c -7.68,30.15 -11.78,60.94 -12.37,91.68 2.92,0.66 6.21,1.17 9.33,1.17 4.41,0 8.47,-1.03 10.67,-4.13 6.45,-9.11 -0.96,-18.3 -0.96,-18.3 0,0 15.44,-8.7 15.84,-17.68 0.38,-8.98 -6.96,-15.13 -6.96,-15.13 0,0 9.91,-4.87 9.61,-13.37 -0.26,-7.81 -10.14,-18.94 -25.16,-24.24 m -12.41,94.6 c -0.12,9.89 0.12,19.75 0.72,29.61 16.27,6.87 33.03,12.92 42.02,12.92 1.33,0 2.49,-0.13 3.45,-0.41 10.56,-3.08 -17.17,-23.07 -37.04,-36.19 -3.35,-2.21 -6.47,-4.22 -9.15,-5.93" /><path
         id="path438"
         style="fill:#7694a6;fill-opacity:1;fill-rule:nonzero;stroke:none"
         d="m 2827.22,2683.45 0.07,0.13 c 19.32,2.32 38.52,6.05 57.47,11.21 -0.78,-0.21 -1.55,-0.42 -2.34,-0.63 -18.38,-4.91 -36.81,-8.47 -55.2,-10.71 m -139.83,7.61 v 0 c -12.02,2.82 -23.87,6.18 -35.53,10.08 11.72,-3.87 23.6,-7.2 35.59,-9.98 l -0.06,-0.1 m 267.91,30.32 c 23.87,11.68 46.91,25.91 68.75,42.73 -21.17,-16.35 -44.15,-30.71 -68.75,-42.73 m 204.77,234.29 c 13.67,41.23 20.6,84.41 20.58,127.76 -0.01,16.76 -1.06,33.54 -3.16,50.24 -0.38,2.99 -0.79,6 -1.24,8.99 -2.09,14.04 -4.93,27.99 -8.52,41.82 20.45,-78.22 16.3,-157.25 -7.66,-228.81 m -770.56,25.02 c -20.37,77.65 -16.5,156.13 6.94,227.3 -10.66,-32.71 -17.1,-66.65 -19.2,-100.88 -0.6,-9.86 -0.84,-19.72 -0.72,-29.61 0.01,-0.97 0.02,-1.95 0.04,-2.92 0.59,-30.74 4.69,-61.53 12.37,-91.68 0.19,-0.74 0.38,-1.47 0.57,-2.21 m 144.08,421.11 c 20.75,15.98 43.24,30.04 67.27,41.87 -23.34,-11.5 -45.87,-25.44 -67.27,-41.87 m 373.39,62.02 v 0 c -40.89,13.86 -84.24,21.24 -128.51,21.24 -14.02,0 -28.14,-0.74 -42.3,-2.25 l -0.09,-0.16 c -21.22,-2.22 -42.36,-6.14 -63.17,-11.77 0.6,0.16 1.2,0.33 1.81,0.49 20.47,5.47 40.99,9.26 61.45,11.44 14.16,1.51 28.28,2.25 42.3,2.25 44.27,0 87.62,-7.38 128.51,-21.24" /><path
         id="path440"
         style="fill:#ffffff;fill-opacity:1;fill-rule:nonzero;stroke:none"
         d="m 2556.25,2747.8 v 0 c -16.3,10.8 -31.82,22.78 -46.44,35.86 h 67.18 l -20.74,-35.86 m 72.61,125.56 h -193.74 c -7.32,12 -13.96,24.28 -19.89,36.77 -1.55,3.25 -3.05,6.53 -4.51,9.84 l 94.52,163.46 h 245.09 l -121.47,-210.07 m 244.79,423.32 h -245.1 l 107.53,185.97 c 13.99,1.46 28.01,2.19 42.03,2.19 43.74,0 87.31,-7.08 128.87,-21.02 17.5,-5.93 34.54,-13.05 51.01,-21.28 l -84.34,-145.86" /><path
         id="path442"
         style="fill:#eef7f7;fill-opacity:1;fill-rule:nonzero;stroke:none"
         d="m 2750.33,3083.43 h -245.09 l 123.31,213.25 h 245.1 l -123.32,-213.25" /><path
         id="path444"
         style="fill:#eef7f7;fill-opacity:1;fill-rule:nonzero;stroke:none"
         d="m 2576.99,2783.66 h -67.18 c -17.14,15.35 -33.03,32.23 -47.42,50.48 -0.58,0.73 -1.14,1.45 -1.72,2.19 -9.3,12.01 -17.81,24.36 -25.55,37.03 h 193.74 l -51.87,-89.7" /><path
         id="path446"
         style="fill:#b7c2ca;fill-opacity:1;fill-rule:nonzero;stroke:none"
         d="m 2462.39,2834.14 c -18.29,23.19 -34.17,48.61 -47.16,75.99 5.93,-12.49 12.57,-24.77 19.89,-36.77 7.74,-12.67 16.25,-25.02 25.55,-37.03 0.58,-0.74 1.14,-1.46 1.72,-2.19 m 444.59,629.68 c -41.56,13.94 -85.13,21.02 -128.87,21.02 -14.02,0 -28.04,-0.73 -42.03,-2.19 l 0.09,0.16 c 14.16,1.51 28.28,2.25 42.3,2.25 44.27,0 87.62,-7.38 128.51,-21.24" /><path
         id="path448"
         style="fill:#ffffff;fill-opacity:1;fill-rule:nonzero;stroke:none"
         d="m 2796.15,2879.14 118.12,204.29 h 144.23 l -27.48,-47.52 -234.87,-156.77 m 323.07,417.54 h -81.64 l 34.98,60.5 c 10.7,-11.42 20.77,-23.52 30.14,-36.23 5.84,-7.94 11.35,-16.05 16.52,-24.27" /><path
         id="path450"
         style="fill:#eef7f7;fill-opacity:1;fill-rule:nonzero;stroke:none"
         d="m 3058.5,3083.43 h -144.23 l 123.31,213.25 h 81.64 c 3.04,-4.82 5.95,-9.67 8.76,-14.59 7.74,-13.56 14.73,-27.67 20.93,-42.3 l -90.41,-156.36" /><path
         id="path452"
         style="fill:#ffffff;fill-opacity:1;fill-rule:nonzero;stroke:none"
         d="m 2779.03,2680.69 c -30.83,0 -61.57,3.51 -91.58,10.47 l 53.49,92.5 h 144.22 l -57.87,-100.08 c -16.04,-1.93 -32.17,-2.89 -48.26,-2.89 m 158,192.67 H 2792.8 l 3.35,5.78 234.87,156.77 -93.99,-162.55" /><path
         id="path454"
         style="fill:#f5f8f9;fill-opacity:1;fill-rule:nonzero;stroke:none"
         d="m 2885.16,2783.66 h -144.22 l 51.86,89.7 h 144.23 l -51.87,-89.7" /><path
         id="path456"
         style="fill:#b7c2ca;fill-opacity:1;fill-rule:nonzero;stroke:none"
         d="m 2778.66,2680.48 c -31.05,0 -61.65,3.63 -91.27,10.58 l 0.06,0.1 c 30.01,-6.96 60.75,-10.47 91.58,-10.47 16.09,0 32.22,0.96 48.26,2.89 l -0.07,-0.13 v 0 c -16.26,-1.99 -32.47,-2.97 -48.56,-2.97 m 349.32,601.61 c -2.81,4.92 -5.72,9.77 -8.76,14.59 -5.17,8.22 -10.68,16.33 -16.52,24.27 9.12,-12.38 17.56,-25.34 25.28,-38.86" /><path
         id="path458"
         style="fill:#f68a85;fill-opacity:1;fill-rule:nonzero;stroke:none"
         d="m 3549.16,2227.72 h -16.18 c -14.46,0 -25.46,8.52 -31.95,21.44 -2.88,5.71 -6.77,16.17 -9.47,19.77 -7.57,10.08 -28.2,27.02 -35.94,27.53 -7.74,0.52 -6.31,-13.87 -0.84,-20.18 5.46,-6.31 14.08,-14.34 18.71,-23.24 4.63,-8.92 -37.85,-27 -55.08,-31.2 -17.24,-4.21 -47.51,5.04 -50.45,-9.25 -2.95,-14.3 19.75,-16.4 19.75,-16.4 0,0 -6.65,-12.88 12.2,-23.54 0,0 -3.37,-12.62 8.83,-19.35 0,0 -1.39,-15.98 12.76,-20.18 14.14,-4.2 58.29,-17.01 144.91,35.55 l -17.25,59.05" /><path
         id="path460"
         style="fill:#cd2e37;fill-opacity:1;fill-rule:nonzero;stroke:none"
         d="m 3854.71,2593.25 c -15.36,-104.3 -64.11,-180.92 -64.11,-180.92 0,0 -45.7,-51.17 -121.1,-104.21 -52.37,-36.85 -136.52,-80.4 -136.52,-80.4 14.51,-18.87 24.76,-56.18 19.16,-67.34 160.34,35.97 320.58,171.03 320.58,171.03 125.3,145.3 122.88,469.6 122.88,469.6 0,0 -4.08,48.1 -30.09,60.32 0,0 -52.48,-19.55 -70.72,-81.12 -18.24,-61.57 -40.08,-186.96 -40.08,-186.96" /><path
         id="path462"
         style="fill:#f68a85;fill-opacity:1;fill-rule:nonzero;stroke:none"
         d="m 3053.96,2574.79 c 0,0 38.92,13.75 56.8,6.31 17.88,-7.44 -31.68,-34.29 -31.68,-34.29 0,0 60.08,31.98 70.46,19.09 10.38,-12.89 -47.1,-45.62 -47.1,-45.62 0,0 44.01,15.47 52.94,6.39 8.95,-9.09 -32.09,-34.74 -32.09,-34.74 0,0 36.12,8.72 43.66,2.59 7.53,-6.14 -24.48,-31.85 -44.8,-38.67 -20.32,-6.81 -23.61,21.81 -23.61,21.81 0,0 -19.11,16.83 -16.56,28.51 0,0 -19.83,13.38 -21.24,27.05 0,0 -27.98,24.64 -6.78,41.57" /><path
         id="path464"
         style="fill:#1e222c;fill-opacity:1;fill-rule:nonzero;stroke:none"
         d="m 2601.04,345.34 c -4.32,-4.418 -8.03,-9.301 -11.08,-14.531 l -4.66,2.41 c -0.66,2.98 -3.48,5.031 -6.58,4.672 -3.31,-0.391 -5.68,-3.391 -5.29,-6.7 0.39,-3.312 3.39,-5.679 6.7,-5.293 l 1.83,0.532 4.51,-2.348 c -2.51,-5.543 -4.32,-11.383 -5.39,-17.441 l 7.46,-1.309 c 2.31,13.059 8.5,25.059 17.92,34.719 l -5.42,5.289" /><path
         id="path466"
         style="fill:#1e222c;fill-opacity:1;fill-rule:nonzero;stroke:none"
         d="m 2655.92,368.371 c -1.71,0 -3.41,-0.07 -5.1,-0.18 l -0.73,6.258 c 1.87,1.5 2.96,3.903 2.65,6.449 -0.45,3.934 -4.02,6.754 -7.95,6.293 -3.93,-0.472 -6.74,-4.031 -6.28,-7.961 0.3,-2.539 1.89,-4.609 4.05,-5.64 l 0.73,-6.238 c -7.14,-1.161 -14.03,-3.321 -20.59,-6.461 l 3.27,-6.84 c 9.33,4.48 19.41,6.73 29.95,6.73 4.96,0 9.93,-0.531 14.74,-1.57 l 1.62,7.41 c -5.36,1.149 -10.85,1.75 -16.36,1.75" /><path
         id="path468"
         style="fill:#1e222c;fill-opacity:1;fill-rule:nonzero;stroke:none"
         d="m 2721.94,342.891 c 3.31,0.41 5.67,3.418 5.26,6.73 -0.4,3.309 -3.42,5.649 -6.72,5.25 -3.1,-0.379 -5.35,-3.031 -5.3,-6.082 l -4.16,-3.629 c -4.18,4.289 -8.9,8.121 -14.09,11.379 l -4.03,-6.398 c 11.34,-7.149 20.21,-17.27 25.64,-29.262 l 6.9,3.121 c -2.51,5.551 -5.67,10.73 -9.42,15.449 l 4.02,3.52 1.9,-0.078" /><path
         id="path470"
         style="fill:#1e222c;fill-opacity:1;fill-rule:nonzero;stroke:none"
         d="m 2650.44,266.281 c -3.86,-0.242 -7.74,-0.34 -11.57,-0.34 -8.8,0 -17.33,0.598 -24.78,1.778 -3.9,0.633 -8.46,1.562 -12.7,2.922 10.46,-18.602 30.69,-31.25 53.88,-31.25 28.56,0 52.62,19.16 59.5,45.039 -6.82,-4.489 -15.06,-8.25 -24.59,-11.231 -11.79,-3.668 -25.54,-6.058 -39.74,-6.918" /><path
         id="path472"
         style="fill:#1e222c;fill-opacity:1;fill-rule:nonzero;stroke:none"
         d="m 2681.7,297.141 c -7.5,0 -13.6,6.101 -13.6,13.601 0,7.5 6.1,13.61 13.6,13.61 7.5,0 13.6,-6.11 13.6,-13.61 0,-7.5 -6.1,-13.601 -13.6,-13.601 z m -47.37,-9.082 c -10.21,0 -18.5,8.3 -18.5,18.492 0,10.211 8.29,18.5 18.5,18.5 10.19,0 18.49,-8.289 18.49,-18.5 0,-10.192 -8.3,-18.492 -18.49,-18.492 z m 21.59,65.14 c -33.53,0 -60.79,-26.66 -60.79,-59.429 0,-4.258 0.46,-8.489 1.36,-12.622 6.74,-4.816 27.06,-8.886 53.48,-7.296 28.79,1.73 52.97,9.57 66.72,21.578 -0.05,1.949 -0.21,3.91 -0.45,5.82 -3.8,29.621 -29.74,51.949 -60.32,51.949" /><path
         id="path474"
         style="fill:#1e222c;fill-opacity:1;fill-rule:nonzero;stroke:none"
         d="m 2815.96,334.531 c -2.95,1.16 -8.06,3.09 -13.83,2.367 -5.51,-0.679 -8.44,-3.386 -8.44,-10.058 v -8.66 h 22.28 v -17.168 h -22.28 v -54.551 h -19.31 v 54.551 h -13.4 v 17.168 h 13.4 v 8.879 c 0,16.812 8.95,27.832 25.68,27.832 6.42,0 11.57,-1.219 15.9,-3.082 v -17.278" /><path
         id="path476"
         style="fill:#1e222c;fill-opacity:1;fill-rule:nonzero;stroke:none"
         d="m 2862.98,301.211 c -1.77,0.301 -3.58,0.469 -5.27,0.469 -8.95,0 -15.09,-5.481 -15.09,-16.141 v -39.078 h -19.32 v 71.719 h 18.73 v -7.848 c 4.51,6.738 11.4,9.777 20.21,9.777 4.14,0 8.47,-1.277 10.93,-3.367 l -10.19,-15.531" /><path
         id="path478"
         style="fill:#1e222c;fill-opacity:1;fill-rule:nonzero;stroke:none"
         d="m 2888.51,289.09 h 31.75 c -1.77,9.18 -7.33,14.359 -15.62,14.359 -9.1,0 -14.43,-5.469 -16.13,-14.359 z m 51.14,-6.66 c 0,-2.219 -0.15,-4.879 -0.37,-6.508 h -50.84 c 2.07,-10.363 9.32,-14.883 18.43,-14.883 6.21,0 12.94,2.512 18.13,6.883 l 11.32,-12.43 c -8.14,-7.472 -18.51,-10.883 -30.57,-10.883 -21.98,0 -37.22,14.95 -37.22,37.532 0,22.57 14.8,37.968 36.26,37.968 20.65,0 34.79,-15.32 34.86,-37.679" /><path
         id="path480"
         style="fill:#1e222c;fill-opacity:1;fill-rule:nonzero;stroke:none"
         d="m 2965.04,289.09 h 31.76 c -1.78,9.18 -7.34,14.359 -15.63,14.359 -9.1,0 -14.43,-5.469 -16.13,-14.359 z m 51.14,-6.66 c 0,-2.219 -0.14,-4.879 -0.37,-6.508 h -50.84 c 2.07,-10.363 9.32,-14.883 18.43,-14.883 6.21,0 12.95,2.512 18.13,6.883 l 11.32,-12.43 c -8.14,-7.472 -18.5,-10.883 -30.56,-10.883 -21.99,0 -37.23,14.95 -37.23,37.532 0,22.57 14.8,37.968 36.26,37.968 20.65,0 34.79,-15.32 34.86,-37.679" /><path
         id="path482"
         style="fill:#1e222c;fill-opacity:1;fill-rule:nonzero;stroke:none"
         d="m 3042.87,282.352 c 0,-11.313 7.48,-19.75 18.43,-19.75 11.4,0 18.5,8.808 18.5,19.75 0,10.957 -7.1,19.769 -18.5,19.769 -10.95,0 -18.43,-8.441 -18.43,-19.769 z m 56.77,0 c 0,-21.532 -14.95,-37.743 -34.71,-37.743 -9.63,0 -16.43,3.782 -21.09,9.332 v -37.082 h -19.25 V 318.18 h 18.88 v -7.918 c 4.66,5.84 11.54,9.847 21.38,9.847 19.84,0 34.79,-16.207 34.79,-37.757" /><path
         id="path484"
         style="fill:#1e222c;fill-opacity:1;fill-rule:nonzero;stroke:none"
         d="m 3128.09,246.461 h -19.32 v 71.719 h 19.32 z m 2.58,95.18 c 0,-6.95 -5.4,-12.282 -12.35,-12.282 -6.96,0 -12.29,5.332 -12.29,12.282 0,6.961 5.33,12.429 12.29,12.429 6.95,0 12.35,-5.468 12.35,-12.429" /><path
         id="path486"
         style="fill:#1e222c;fill-opacity:1;fill-rule:nonzero;stroke:none"
         d="m 3160.32,292.652 27.01,25.528 h 23.7 l -34.8,-33.75 35.01,-37.969 h -23.76 l -27.16,29.019 v -29.019 h -19.31 v 106.578 h 19.31 v -60.387" /><path
         id="path488"
         style="fill:#1e222c;fill-opacity:1;fill-rule:nonzero;stroke:none"
         d="m 1844.13,266.301 v 32.078 c -3.96,6.152 -12.46,11.422 -21.24,11.422 -14.21,0 -22.71,-11.711 -22.71,-27.391 0,-15.668 8.5,-27.238 22.71,-27.238 8.78,0 17.28,4.98 21.24,11.129 z m 0,-19.192 v 10.551 c -5.28,-7.18 -13.92,-12.308 -23.88,-12.308 -18.46,0 -31.5,14.058 -31.5,37.058 0,22.559 12.9,37.211 31.5,37.211 9.52,0 18.16,-4.691 23.88,-12.449 v 37.637 h 10.98 v -97.7 h -10.98" /><path
         id="path490"
         style="fill:#1e222c;fill-opacity:1;fill-rule:nonzero;stroke:none"
         d="m 1904.03,310.539 c -15.08,0 -22.56,-12.75 -23.14,-23.59 h 46.43 c -0.14,10.551 -7.17,23.59 -23.29,23.59 z m -34.71,-27.98 c 0,20.511 14.64,37.062 34.86,37.062 21.39,0 33.98,-16.699 33.98,-37.941 v -2.778 h -57.27 c 0.88,-13.332 10.25,-24.472 25.49,-24.472 8.05,0 16.26,3.23 21.82,8.941 l 5.28,-7.18 c -7.03,-7.031 -16.56,-10.839 -28.13,-10.839 -20.95,0 -36.03,15.089 -36.03,37.207" /><path
         id="path492"
         style="fill:#1e222c;fill-opacity:1;fill-rule:nonzero;stroke:none"
         d="m 1946.07,256.48 5.71,7.911 c 4.69,-5.422 13.63,-10.102 23.29,-10.102 10.84,0 16.7,5.121 16.7,12.16 0,17.133 -43.8,6.59 -43.8,32.813 0,10.976 9.53,20.359 26.37,20.359 12.01,0 20.51,-4.539 26.22,-10.25 l -5.13,-7.621 c -4.24,5.121 -12.01,8.93 -21.09,8.93 -9.67,0 -15.67,-4.828 -15.67,-11.129 0,-15.531 43.79,-5.27 43.79,-32.809 0,-11.871 -9.52,-21.39 -27.83,-21.39 -11.57,0 -21.38,3.519 -28.56,11.128" /><path
         id="path494"
         style="fill:#1e222c;fill-opacity:1;fill-rule:nonzero;stroke:none"
         d="m 2016.67,247.109 v 70.75 h 10.99 v -70.75 z m -1.9,88.18 c 0,4.102 3.37,7.473 7.32,7.473 4.11,0 7.47,-3.371 7.47,-7.473 0,-4.098 -3.36,-7.32 -7.47,-7.32 -3.95,0 -7.32,3.222 -7.32,7.32" /><path
         id="path496"
         style="fill:#1e222c;fill-opacity:1;fill-rule:nonzero;stroke:none"
         d="m 2097.08,267.469 v 30.91 c -3.8,6.152 -12.3,11.422 -21.08,11.422 -14.22,0 -22.71,-11.27 -22.71,-26.949 0,-15.532 8.49,-26.954 22.71,-26.954 8.78,0 17.28,5.422 21.08,11.571 z m -51.26,-38.52 5.57,8.199 c 5.86,-7.027 12.89,-9.668 22.99,-9.668 11.72,0 22.7,5.711 22.7,21.239 v 10.113 c -5.12,-7.184 -13.76,-12.602 -23.73,-12.602 -18.45,0 -31.48,13.77 -31.48,36.622 0,22.707 12.88,36.769 31.48,36.769 9.53,0 18.03,-4.691 23.73,-12.449 v 10.687 h 10.99 V 249.16 c 0,-23.441 -16.4,-30.762 -33.69,-30.762 -12.01,0 -20.21,2.344 -28.56,10.551" /><path
         id="path498"
         style="fill:#1e222c;fill-opacity:1;fill-rule:nonzero;stroke:none"
         d="m 2174.13,247.109 v 46.289 c 0,12.454 -6.29,16.403 -15.81,16.403 -8.65,0 -16.86,-5.27 -20.95,-10.981 v -51.711 h -10.99 v 70.75 h 10.99 v -10.25 c 4.98,5.86 14.64,12.012 25.19,12.012 14.79,0 22.56,-7.473 22.56,-22.851 v -49.661 h -10.99" /><path
         id="path500"
         style="fill:#1e222c;fill-opacity:1;fill-rule:nonzero;stroke:none"
         d="m 2234.04,310.539 c -15.08,0 -22.56,-12.75 -23.14,-23.59 h 46.43 c -0.15,10.551 -7.18,23.59 -23.29,23.59 z m -34.71,-27.98 c 0,20.511 14.64,37.062 34.86,37.062 21.38,0 33.98,-16.699 33.98,-37.941 v -2.778 h -57.27 c 0.88,-13.332 10.25,-24.472 25.49,-24.472 8.05,0 16.25,3.23 21.82,8.941 l 5.28,-7.18 c -7.03,-7.031 -16.56,-10.839 -28.13,-10.839 -20.95,0 -36.03,15.089 -36.03,37.207" /><path
         id="path502"
         style="fill:#1e222c;fill-opacity:1;fill-rule:nonzero;stroke:none"
         d="m 2333.5,266.301 v 32.078 c -3.96,6.152 -12.45,11.422 -21.24,11.422 -14.21,0 -22.7,-11.711 -22.7,-27.391 0,-15.668 8.49,-27.238 22.7,-27.238 8.79,0 17.28,4.98 21.24,11.129 z m 0,-19.192 v 10.551 c -5.27,-7.18 -13.92,-12.308 -23.88,-12.308 -18.45,0 -31.49,14.058 -31.49,37.058 0,22.559 12.89,37.211 31.49,37.211 9.52,0 18.17,-4.691 23.88,-12.449 v 37.637 h 10.99 v -97.7 h -10.99" /><path
         id="path504"
         style="fill:#1e222c;fill-opacity:1;fill-rule:nonzero;stroke:none"
         d="m 2429,255.172 c 14.35,0 22.85,11.57 22.85,27.238 0,15.68 -8.5,27.391 -22.85,27.391 -8.64,0 -17.29,-5.27 -21.09,-11.422 v -32.078 c 3.8,-6.149 12.45,-11.129 21.09,-11.129 z m -32.08,-8.063 v 97.7 h 10.99 v -37.637 c 5.71,7.758 14.2,12.449 23.87,12.449 18.46,0 31.5,-14.652 31.5,-37.211 0,-23 -13.04,-37.058 -31.5,-37.058 -9.96,0 -18.6,5.128 -23.87,12.308 v -10.551 h -10.99" /><path
         id="path506"
         style="fill:#1e222c;fill-opacity:1;fill-rule:nonzero;stroke:none"
         d="m 2475.28,229.379 c 1.61,-0.731 4.26,-1.168 6.01,-1.168 4.83,0 8.06,1.609 10.55,7.469 l 4.69,10.699 -29.6,71.48 h 11.87 l 23.58,-58.007 23.44,58.007 h 12.01 l -35.45,-85.109 c -4.25,-10.25 -11.42,-14.211 -20.8,-14.352 -2.34,0 -6,0.442 -8.05,1.024 l 1.75,9.957" /></g></g></svg>